<svg width="346" height="295" viewBox="0 0 346 295" fill="none" xmlns="http://www.w3.org/2000/svg">
<rect width="346" height="295" rx="10.1162" fill="white"/>
<path fill-rule="evenodd" clip-rule="evenodd" d="M77.8851 16.0663C73.4121 16.661 71.6437 17.0541 68.667 18.1163C64.657 19.5469 60.768 22.0047 57.4217 25.2226C54.584 27.9515 52.8817 30.2745 51.1031 33.8448C49.8787 36.3028 48.3234 41.5608 48.3234 43.2421C48.3234 43.5644 48.226 43.6508 47.9526 43.5717C45.6796 42.9135 39.4439 42.7823 36.2445 43.3254C29.0429 44.5475 23.2257 47.505 18.2119 52.493C13.2228 57.4563 10.4139 63.2988 9.5326 70.5451C8.71144 77.2957 10.8742 85.1041 15.2171 91.0689C17.8205 94.6443 22.8953 98.8269 26.8714 100.674C27.7093 101.063 28.397 101.453 28.3993 101.54C28.4018 101.628 27.9286 102.629 27.3478 103.765C24.1306 110.057 23.3596 117.631 25.2236 124.635C27.9804 134.993 36.6668 143.416 47.6252 146.356C54.0179 148.071 60.0269 147.908 66.5426 145.843C71.187 144.371 75.7247 141.657 79.15 138.301L80.2032 137.27L81.693 138.661C86.1971 142.866 91.0527 145.39 97.275 146.76C103.003 148.021 108.457 147.729 114.406 145.843C120.206 144.003 124.957 140.891 128.891 136.352C132.939 131.682 135.308 126.247 136.07 119.883C136.684 114.758 135.56 108.721 133.068 103.761C132.496 102.623 132.032 101.622 132.037 101.537C132.041 101.451 132.542 101.158 133.149 100.885C137.961 98.721 143.55 93.8703 146.256 89.5095C148.327 86.1711 149.67 82.899 150.492 79.1892C151.107 76.4165 151.159 71.1246 150.599 68.4219C149.579 63.4956 148.161 60.1537 145.454 56.2896C144.003 54.2172 141.436 51.5137 139.587 50.1098C138.79 49.505 138.027 48.9168 137.891 48.8028C137.15 48.1806 134.016 46.4382 132.452 45.779C126.242 43.161 120.487 42.3676 114.228 43.2664C113.47 43.3754 112.684 43.5127 112.48 43.5717C112.208 43.6504 112.109 43.5646 112.109 43.2494C112.109 43.013 111.908 41.8922 111.662 40.7586C110.367 34.781 107.615 29.7409 103.326 25.4873C100.466 22.6513 98.0572 20.9815 94.3083 19.2365C91.2008 17.7901 88.3904 16.9018 85.5315 16.463C83.4372 16.1413 79.0375 15.9133 77.8851 16.0663Z" fill="#FBCED0"/>
<path fill-rule="evenodd" clip-rule="evenodd" d="M99.8814 68.781C99.3416 68.507 97.8291 68.1981 97.2113 68.2357C96.7145 68.2658 95.8382 68.5464 95.1475 68.8963C94.5719 69.188 91.7867 71.1251 91.2112 71.6341C90.291 72.4479 89.4585 73.7695 88.9581 75.2109C88.3262 77.0312 88.3162 79.1071 88.9293 81.1888C89.252 82.2845 89.4271 82.5721 90.2345 83.3327C91.363 84.3957 91.9148 84.6618 93.31 84.8155C94.6105 84.9587 95.6803 84.7773 96.6952 84.2415C99.1908 82.9239 100.85 80.4457 101.385 77.2359C101.703 75.3307 101.885 72.5412 101.757 71.5396C101.65 70.7011 101.34 70.0525 100.768 69.465C100.421 69.1087 100.216 68.9508 99.8814 68.781ZM89.91 59.2933C89.1421 58.8599 87.9517 58.5576 87.1 58.5797C85.4071 58.6237 83.0508 59.4237 81.2481 60.5664C79.902 61.4198 78.5809 62.6421 78.0332 63.541C77.571 64.2995 76.9829 65.7916 76.835 66.581C76.7063 67.2677 76.6393 68.3544 76.698 68.8026C76.7905 69.5093 77.4288 70.8682 78.0256 71.6288C78.689 72.4743 80.1133 73.3961 81.1638 73.6599C81.7012 73.7948 83.0824 73.7792 84.0897 73.6267C85.1492 73.4664 85.9616 73.1141 87.0369 72.3488C87.8314 71.7833 88.0008 71.6308 88.4871 71.0431C89.2941 70.0677 89.968 68.9755 90.9293 67.0855C91.7276 65.5157 91.9174 65.0131 91.9909 64.2741C92.0597 63.5817 91.98 62.9747 91.6807 61.9125C91.4497 61.0929 91.2399 60.6452 90.8575 60.1555C90.487 59.6811 90.3072 59.5175 89.91 59.2933ZM72.8986 60.8589C72.6523 60.7457 72.2909 60.6196 72.0954 60.5785C71.5265 60.4591 70.1248 60.3193 69.7273 60.3424C68.3795 60.4209 66.7327 61.1774 65.5713 62.2517C64.2128 63.5084 63.3292 64.9333 62.9684 66.4495C62.5444 68.2314 62.64 69.8903 63.281 71.8744C63.5899 72.8305 63.8222 73.2555 64.4418 73.9987C65.2511 74.969 66.0586 75.5458 66.8315 75.7056C67.2849 75.7993 68.3024 75.7118 68.9179 75.5263C69.9754 75.2074 71.2339 74.4315 71.9924 73.6307C72.4567 73.1405 72.5476 73.0061 72.8228 72.4027C73.4218 71.0895 73.875 69.4638 74.1513 67.6364C74.2382 67.0627 74.3928 66.2023 74.4949 65.7246C74.7614 64.4782 74.7826 63.4703 74.5576 62.7417C74.3088 61.936 73.6734 61.2149 72.8986 60.8589ZM99.7707 86.6461C99.1434 86.4151 98.0178 86.4656 97.104 86.7658C96.493 86.9665 95.1882 87.3717 93.2567 87.9604C92.8632 88.0802 91.1258 88.8946 90.6471 89.1835C90.3907 89.3383 90.1377 89.5788 89.7546 90.0325L89.22 90.6655L88.8195 91.9986C88.2828 93.7849 88.1901 94.3044 88.2641 95.1112C88.3993 96.5856 89.427 98.0965 90.7977 98.8362C91.5408 99.2373 92.8351 99.5953 93.6422 99.6231C96.7677 99.7306 98.7792 98.7706 100.537 96.3328C101.5 94.9978 101.9 94.0464 102.113 92.5854C102.478 90.0818 101.353 87.2289 99.7707 86.6461ZM84.2645 77.4481C83.3928 76.8198 82.961 76.5881 82.2085 76.3451C80.5551 75.8111 78.9418 75.9417 75.8832 76.8568C75.2208 77.0549 74.2943 77.2817 73.8245 77.3607C72.2312 77.6284 69.8128 77.5533 67.5157 77.1646C65.5461 76.8313 64.5981 76.8932 63.123 77.4518C62.6122 77.6452 61.932 77.939 61.6116 78.1047L61.0291 78.4059L60.0952 79.5153L59.1613 80.6247L58.9276 81.2805C58.6061 82.1829 58.4972 82.7519 58.4896 83.5691C58.4761 85.0183 58.8238 86.3138 59.5887 87.6642C60.02 88.4256 60.2839 88.7832 60.9863 89.5579C61.9924 90.6676 62.5641 91.074 65.2027 92.5542C65.8868 92.9379 66.7106 93.4407 67.0335 93.6715C67.9043 94.2938 69.3376 95.5918 69.9437 96.3071C70.6631 97.1559 71.5964 98.5705 72.0889 99.5584C73.2866 101.961 75.0829 103.846 77.1618 104.882C78.8586 105.727 80.5921 106.03 81.9757 105.722C82.9331 105.509 84.0999 105.017 84.6112 104.61C85.5035 103.899 86.482 102.354 86.7463 101.239C87.0454 99.9763 86.9635 98.2518 86.4925 95.8928C86.1418 94.1362 85.9201 92.2338 85.956 91.287C85.9708 90.8944 86.102 89.7329 86.2474 88.7058C87.0344 83.1482 87.0681 82.4375 86.6167 80.9284C86.3294 79.968 86.198 79.6695 85.7908 79.0525C85.3076 78.3204 84.9427 77.9368 84.2645 77.4481Z" fill="#554B43"/>
<path fill-rule="evenodd" clip-rule="evenodd" d="M78.0792 148.049C73.6062 148.643 71.8378 149.037 68.8611 150.099C64.8511 151.529 60.962 153.987 57.6158 157.205C54.778 159.934 53.0758 162.257 51.2972 165.827C50.0728 168.285 48.5175 173.543 48.5175 175.225C48.5175 175.547 48.4201 175.633 48.1467 175.554C45.8737 174.896 39.638 174.765 36.4386 175.308C29.237 176.53 23.4198 179.487 18.406 184.475C13.4169 189.439 10.608 195.281 9.72669 202.527C8.90553 209.278 11.0683 217.086 15.4112 223.051C18.0146 226.627 23.0894 230.809 27.0655 232.656C27.9034 233.045 28.5911 233.435 28.5934 233.523C28.5959 233.61 28.1227 234.611 27.5419 235.747C24.3246 242.04 23.5537 249.613 25.4177 256.617C28.1744 266.976 36.8609 275.398 47.8193 278.339C54.212 280.054 60.221 279.891 66.7366 277.826C71.3811 276.353 75.9188 273.639 79.3441 270.284L80.3973 269.252L81.8871 270.643C86.3912 274.849 91.2468 277.373 97.4691 278.742C103.197 280.003 108.651 279.711 114.6 277.825C120.4 275.986 125.151 272.873 129.085 268.334C133.133 263.664 135.502 258.23 136.264 251.866C136.878 246.74 135.754 240.704 133.262 235.744C132.69 234.606 132.226 233.605 132.231 233.519C132.235 233.434 132.736 233.14 133.343 232.867C138.155 230.703 143.744 225.853 146.45 221.492C148.521 218.154 149.864 214.881 150.686 211.172C151.301 208.399 151.353 203.107 150.793 200.404C149.773 195.478 148.355 192.136 145.649 188.272C144.197 186.2 141.63 183.496 139.781 182.092C138.984 181.487 138.221 180.899 138.085 180.785C137.344 180.163 134.21 178.421 132.646 177.761C126.436 175.143 120.681 174.35 114.422 175.249C113.664 175.358 112.878 175.495 112.674 175.554C112.402 175.633 112.303 175.547 112.303 175.232C112.303 174.995 112.102 173.875 111.856 172.741C110.561 166.763 107.81 161.723 103.52 157.47C100.66 154.634 98.2513 152.964 94.5024 151.219C91.3949 149.773 88.5845 148.884 85.7256 148.445C83.6313 148.124 79.2316 147.896 78.0792 148.049Z" fill="#FBCED0"/>
<path fill-rule="evenodd" clip-rule="evenodd" d="M100.075 200.764C99.5357 200.49 98.0232 200.181 97.4054 200.218C96.9085 200.249 96.0323 200.529 95.3416 200.879C94.766 201.171 91.9808 203.108 91.4053 203.617C90.4851 204.431 89.6526 205.752 89.1522 207.194C88.5203 209.014 88.5103 211.09 89.1234 213.172C89.4461 214.267 89.6212 214.555 90.4286 215.315C91.557 216.378 92.1089 216.644 93.5041 216.798C94.8046 216.941 95.8744 216.76 96.8893 216.224C99.3848 214.907 101.044 212.428 101.579 209.219C101.897 207.313 102.079 204.524 101.951 203.522C101.844 202.684 101.535 202.035 100.962 201.448C100.615 201.091 100.41 200.933 100.075 200.764ZM90.1041 191.276C89.3362 190.843 88.1458 190.54 87.2941 190.562C85.6012 190.606 83.2449 191.406 81.4422 192.549C80.096 193.402 78.775 194.625 78.2273 195.524C77.7651 196.282 77.177 197.774 77.0291 198.564C76.9004 199.25 76.8334 200.337 76.892 200.785C76.9845 201.492 77.6229 202.851 78.2197 203.611C78.883 204.457 80.3073 205.379 81.3579 205.643C81.8953 205.778 83.2765 205.762 84.2838 205.609C85.3433 205.449 86.1557 205.097 87.231 204.331C88.0255 203.766 88.1949 203.614 88.6811 203.026C89.4882 202.05 90.1621 200.958 91.1234 199.068C91.9217 197.498 92.1115 196.996 92.185 196.257C92.2538 195.564 92.1741 194.957 91.8748 193.895C91.6438 193.076 91.434 192.628 91.0516 192.138C90.681 191.664 90.5013 191.5 90.1041 191.276ZM73.0927 192.842C72.8464 192.728 72.485 192.602 72.2895 192.561C71.7206 192.442 70.3189 192.302 69.9214 192.325C68.5736 192.404 66.9268 193.16 65.7654 194.234C64.4068 195.491 63.5233 196.916 63.1625 198.432C62.7385 200.214 62.8341 201.873 63.4751 203.857C63.784 204.813 64.0163 205.238 64.6359 205.981C65.4451 206.952 66.2526 207.528 67.0256 207.688C67.479 207.782 68.4964 207.695 69.112 207.509C70.1695 207.19 71.428 206.414 72.1865 205.613C72.6508 205.123 72.7417 204.989 73.0169 204.385C73.6159 203.072 74.0691 201.446 74.3454 199.619C74.4322 199.045 74.5868 198.185 74.689 197.707C74.9555 196.461 74.9767 195.453 74.7517 194.724C74.5029 193.919 73.8675 193.198 73.0927 192.842ZM99.9648 218.629C99.3375 218.398 98.2119 218.448 97.2981 218.748C96.6871 218.949 95.3823 219.354 93.4507 219.943C93.0573 220.063 91.3199 220.877 90.8412 221.166C90.5847 221.321 90.3318 221.561 89.9487 222.015L89.4141 222.648L89.0136 223.981C88.4769 225.768 88.3842 226.287 88.4582 227.094C88.5934 228.568 89.6211 230.079 90.9918 230.819C91.7349 231.22 93.0291 231.578 93.8363 231.606C96.9618 231.713 98.9733 230.753 100.731 228.315C101.694 226.98 102.094 226.029 102.307 224.568C102.672 222.064 101.547 219.212 99.9648 218.629ZM84.4586 209.431C83.5869 208.802 83.1551 208.571 82.4026 208.328C80.7492 207.794 79.1359 207.924 76.0773 208.839C75.4148 209.038 74.4884 209.264 74.0186 209.343C72.4253 209.611 70.0069 209.536 67.7098 209.147C65.7402 208.814 64.7922 208.876 63.317 209.434C62.8062 209.628 62.1261 209.922 61.8057 210.087L61.2232 210.389L60.2893 211.498L59.3554 212.607L59.1217 213.263C58.8001 214.166 58.6913 214.735 58.6836 215.552C58.6702 217.001 59.0179 218.296 59.7828 219.647C60.214 220.408 60.478 220.766 61.1803 221.541C62.1865 222.65 62.7582 223.057 65.3968 224.537C66.0809 224.921 66.9047 225.423 67.2276 225.654C68.0984 226.276 69.5317 227.574 70.1378 228.29C70.8572 229.139 71.7905 230.553 72.283 231.541C73.4807 233.944 75.277 235.829 77.3559 236.864C79.0527 237.71 80.7862 238.012 82.1698 237.705C83.1272 237.492 84.294 237 84.8053 236.592C85.6976 235.881 86.6761 234.337 86.9404 233.221C87.2395 231.959 87.1576 230.234 86.6866 227.875C86.3359 226.119 86.1142 224.216 86.15 223.27C86.1649 222.877 86.2961 221.716 86.4415 220.688C87.2285 215.131 87.2622 214.42 86.8108 212.911C86.5235 211.951 86.3921 211.652 85.9849 211.035C85.5017 210.303 85.1367 209.919 84.4586 209.431Z" fill="#554B43"/>
<path fill-rule="evenodd" clip-rule="evenodd" d="M259.079 148.049C254.606 148.643 252.838 149.037 249.861 150.099C245.851 151.529 241.962 153.987 238.616 157.205C235.778 159.934 234.076 162.257 232.297 165.827C231.073 168.285 229.518 173.543 229.518 175.225C229.518 175.547 229.42 175.633 229.147 175.554C226.874 174.896 220.638 174.765 217.439 175.308C210.237 176.53 204.42 179.487 199.406 184.475C194.417 189.439 191.608 195.281 190.727 202.527C189.906 209.278 192.068 217.086 196.411 223.051C199.015 226.627 204.089 230.809 208.066 232.656C208.903 233.045 209.591 233.435 209.593 233.523C209.596 233.61 209.123 234.611 208.542 235.747C205.325 242.04 204.554 249.613 206.418 256.617C209.174 266.976 217.861 275.398 228.819 278.339C235.212 280.054 241.221 279.891 247.737 277.826C252.381 276.353 256.919 273.639 260.344 270.284L261.397 269.252L262.887 270.643C267.391 274.849 272.247 277.373 278.469 278.742C284.197 280.003 289.651 279.711 295.6 277.825C301.4 275.986 306.151 272.873 310.085 268.334C314.133 263.664 316.502 258.23 317.264 251.866C317.878 246.74 316.754 240.704 314.262 235.744C313.69 234.606 313.226 233.605 313.231 233.519C313.235 233.434 313.736 233.14 314.343 232.867C319.155 230.703 324.744 225.853 327.45 221.492C329.521 218.154 330.864 214.881 331.686 211.172C332.301 208.399 332.353 203.107 331.793 200.404C330.773 195.478 329.355 192.136 326.649 188.272C325.197 186.2 322.63 183.496 320.781 182.092C319.984 181.487 319.221 180.899 319.085 180.785C318.344 180.163 315.21 178.421 313.646 177.761C307.436 175.143 301.681 174.35 295.422 175.249C294.664 175.358 293.878 175.495 293.674 175.554C293.402 175.633 293.303 175.547 293.303 175.232C293.303 174.995 293.102 173.875 292.856 172.741C291.561 166.763 288.81 161.723 284.52 157.47C281.66 154.634 279.251 152.964 275.502 151.219C272.395 149.773 269.585 148.884 266.726 148.445C264.631 148.124 260.232 147.896 259.079 148.049Z" fill="#FBCED0"/>
<path fill-rule="evenodd" clip-rule="evenodd" d="M281.075 200.764C280.536 200.49 279.023 200.181 278.405 200.218C277.909 200.249 277.032 200.529 276.342 200.879C275.766 201.171 272.981 203.108 272.405 203.617C271.485 204.431 270.653 205.752 270.152 207.194C269.52 209.014 269.51 211.09 270.123 213.172C270.446 214.267 270.621 214.555 271.429 215.315C272.557 216.378 273.109 216.644 274.504 216.798C275.805 216.941 276.874 216.76 277.889 216.224C280.385 214.907 282.044 212.428 282.579 209.219C282.897 207.313 283.079 204.524 282.951 203.522C282.844 202.684 282.535 202.035 281.962 201.448C281.615 201.091 281.41 200.933 281.075 200.764ZM271.104 191.276C270.336 190.843 269.146 190.54 268.294 190.562C266.601 190.606 264.245 191.406 262.442 192.549C261.096 193.402 259.775 194.625 259.227 195.524C258.765 196.282 258.177 197.774 258.029 198.564C257.9 199.25 257.833 200.337 257.892 200.785C257.985 201.492 258.623 202.851 259.22 203.611C259.883 204.457 261.307 205.379 262.358 205.643C262.895 205.778 264.276 205.762 265.284 205.609C266.343 205.449 267.156 205.097 268.231 204.331C269.025 203.766 269.195 203.614 269.681 203.026C270.488 202.05 271.162 200.958 272.123 199.068C272.922 197.498 273.111 196.996 273.185 196.257C273.254 195.564 273.174 194.957 272.875 193.895C272.644 193.076 272.434 192.628 272.052 192.138C271.681 191.664 271.501 191.5 271.104 191.276ZM254.093 192.842C253.846 192.728 253.485 192.602 253.29 192.561C252.721 192.442 251.319 192.302 250.921 192.325C249.574 192.404 247.927 193.16 246.765 194.234C245.407 195.491 244.523 196.916 244.162 198.432C243.738 200.214 243.834 201.873 244.475 203.857C244.784 204.813 245.016 205.238 245.636 205.981C246.445 206.952 247.253 207.528 248.026 207.688C248.479 207.782 249.496 207.695 250.112 207.509C251.17 207.19 252.428 206.414 253.187 205.613C253.651 205.123 253.742 204.989 254.017 204.385C254.616 203.072 255.069 201.446 255.345 199.619C255.432 199.045 255.587 198.185 255.689 197.707C255.956 196.461 255.977 195.453 255.752 194.724C255.503 193.919 254.867 193.198 254.093 192.842ZM280.965 218.629C280.338 218.398 279.212 218.448 278.298 218.748C277.687 218.949 276.382 219.354 274.451 219.943C274.057 220.063 272.32 220.877 271.841 221.166C271.585 221.321 271.332 221.561 270.949 222.015L270.414 222.648L270.014 223.981C269.477 225.768 269.384 226.287 269.458 227.094C269.593 228.568 270.621 230.079 271.992 230.819C272.735 231.22 274.029 231.578 274.836 231.606C277.962 231.713 279.973 230.753 281.731 228.315C282.694 226.98 283.094 226.029 283.307 224.568C283.672 222.064 282.547 219.212 280.965 218.629ZM265.459 209.431C264.587 208.802 264.155 208.571 263.403 208.328C261.749 207.794 260.136 207.924 257.077 208.839C256.415 209.038 255.488 209.264 255.019 209.343C253.425 209.611 251.007 209.536 248.71 209.147C246.74 208.814 245.792 208.876 244.317 209.434C243.806 209.628 243.126 209.922 242.806 210.087L242.223 210.389L241.289 211.498L240.355 212.607L240.122 213.263C239.8 214.166 239.691 214.735 239.684 215.552C239.67 217.001 240.018 218.296 240.783 219.647C241.214 220.408 241.478 220.766 242.18 221.541C243.186 222.65 243.758 223.057 246.397 224.537C247.081 224.921 247.905 225.423 248.228 225.654C249.098 226.276 250.532 227.574 251.138 228.29C251.857 229.139 252.79 230.553 253.283 231.541C254.481 233.944 256.277 235.829 258.356 236.864C260.053 237.71 261.786 238.012 263.17 237.705C264.127 237.492 265.294 237 265.805 236.592C266.698 235.881 267.676 234.337 267.94 233.221C268.239 231.959 268.158 230.234 267.687 227.875C267.336 226.119 267.114 224.216 267.15 223.27C267.165 222.877 267.296 221.716 267.442 220.688C268.228 215.131 268.262 214.42 267.811 212.911C267.524 211.951 267.392 211.652 266.985 211.035C266.502 210.303 266.137 209.919 265.459 209.431Z" fill="#554B43"/>
<path fill-rule="evenodd" clip-rule="evenodd" d="M259.079 16.0487C254.606 16.6434 252.838 17.0365 249.861 18.0987C245.851 19.5293 241.962 21.9871 238.616 25.205C235.778 27.934 234.076 30.2569 232.297 33.8272C231.073 36.2852 229.518 41.5432 229.518 43.2245C229.518 43.5468 229.42 43.6332 229.147 43.5541C226.874 42.8959 220.638 42.7647 217.439 43.3078C210.237 44.53 204.42 47.4874 199.406 52.4754C194.417 57.4388 191.608 63.2813 190.727 70.5275C189.906 77.2781 192.068 85.0865 196.411 91.0513C199.015 94.6267 204.089 98.8093 208.066 100.656C208.903 101.045 209.591 101.435 209.593 101.523C209.596 101.61 209.123 102.611 208.542 103.747C205.325 110.04 204.554 117.613 206.418 124.617C209.174 134.976 217.861 143.398 228.819 146.339C235.212 148.054 241.221 147.891 247.737 145.826C252.381 144.353 256.919 141.639 260.344 138.284L261.397 137.252L262.887 138.643C267.391 142.849 272.247 145.373 278.469 146.742C284.197 148.003 289.651 147.711 295.6 145.825C301.4 143.986 306.151 140.873 310.085 136.334C314.133 131.664 316.502 126.23 317.264 119.866C317.878 114.74 316.754 108.704 314.262 103.744C313.69 102.606 313.226 101.605 313.231 101.519C313.235 101.434 313.736 101.14 314.343 100.867C319.155 98.7034 324.744 93.8527 327.45 89.4919C329.521 86.1535 330.864 82.8814 331.686 79.1716C332.301 76.3989 332.353 71.107 331.793 68.4043C330.773 63.478 329.355 60.1362 326.649 56.272C325.197 54.1996 322.63 51.4961 320.781 50.0922C319.984 49.4874 319.221 48.8992 319.085 48.7852C318.344 48.163 315.21 46.4206 313.646 45.7614C307.436 43.1434 301.681 42.35 295.422 43.2488C294.664 43.3578 293.878 43.4951 293.674 43.5541C293.402 43.6328 293.303 43.547 293.303 43.2318C293.303 42.9954 293.102 41.8746 292.856 40.741C291.561 34.7634 288.81 29.7233 284.52 25.4697C281.66 22.6338 279.251 20.964 275.502 19.2189C272.395 17.7725 269.585 16.8843 266.726 16.4455C264.631 16.1238 260.232 15.8957 259.079 16.0487Z" fill="#FBCED0"/>
<path fill-rule="evenodd" clip-rule="evenodd" d="M281.075 68.7636C280.536 68.4897 279.023 68.1807 278.405 68.2183C277.909 68.2485 277.032 68.529 276.342 68.879C275.766 69.1706 272.981 71.1078 272.405 71.6168C271.485 72.4305 270.653 73.7521 270.152 75.1936C269.52 77.0139 269.51 79.0898 270.123 81.1715C270.446 82.2672 270.621 82.5548 271.429 83.3154C272.557 84.3784 273.109 84.6445 274.504 84.7981C275.805 84.9414 276.874 84.76 277.889 84.2242C280.385 82.9066 282.044 80.4284 282.579 77.2186C282.897 75.3134 283.079 72.5239 282.951 71.5223C282.844 70.6838 282.535 70.0351 281.962 69.4477C281.615 69.0914 281.41 68.9335 281.075 68.7636ZM271.104 59.276C270.336 58.8425 269.146 58.5403 268.294 58.5623C266.601 58.6064 264.245 59.4064 262.442 60.5491C261.096 61.4024 259.775 62.6247 259.227 63.5236C258.765 64.2822 258.177 65.7743 258.029 66.5636C257.9 67.2504 257.833 68.3371 257.892 68.7853C257.985 69.492 258.623 70.8508 259.22 71.6114C259.883 72.457 261.307 73.3788 262.358 73.6426C262.895 73.7775 264.276 73.7618 265.284 73.6094C266.343 73.449 267.156 73.0967 268.231 72.3315C269.025 71.766 269.195 71.6135 269.681 71.0258C270.488 70.0504 271.162 68.9582 272.123 67.0682C272.922 65.4984 273.111 64.9957 273.185 64.2568C273.254 63.5644 273.174 62.9574 272.875 61.8951C272.644 61.0756 272.434 60.6278 272.052 60.1382C271.681 59.6638 271.501 59.5002 271.104 59.276ZM254.093 60.8416C253.846 60.7284 253.485 60.6022 253.29 60.5612C252.721 60.4417 251.319 60.3019 250.921 60.3251C249.574 60.4035 247.927 61.1601 246.765 62.2343C245.407 63.4911 244.523 64.916 244.162 66.4322C243.738 68.2141 243.834 69.873 244.475 71.857C244.784 72.8132 245.016 73.2382 245.636 73.9813C246.445 74.9517 247.253 75.5285 248.026 75.6883C248.479 75.782 249.496 75.6945 250.112 75.5089C251.17 75.1901 252.428 74.4142 253.187 73.6133C253.651 73.1231 253.742 72.9888 254.017 72.3854C254.616 71.0722 255.069 69.4465 255.345 67.6191C255.432 67.0453 255.587 66.185 255.689 65.7072C255.956 64.4608 255.977 63.453 255.752 62.7244C255.503 61.9187 254.867 61.1975 254.093 60.8416ZM280.965 86.6288C280.338 86.3978 279.212 86.4483 278.298 86.7485C277.687 86.9492 276.382 87.3543 274.451 87.943C274.057 88.0629 272.32 88.8773 271.841 89.1661C271.585 89.3209 271.332 89.5615 270.949 90.0152L270.414 90.6482L270.014 91.9813C269.477 93.7676 269.384 94.2871 269.458 95.0939C269.593 96.5683 270.621 98.0792 271.992 98.8189C272.735 99.22 274.029 99.578 274.836 99.6057C277.962 99.7132 279.973 98.7533 281.731 96.3154C282.694 94.9805 283.094 94.0291 283.307 92.5681C283.672 90.0645 282.547 87.2116 280.965 86.6288ZM265.459 77.4307C264.587 76.8025 264.155 76.5708 263.403 76.3278C261.749 75.7938 260.136 75.9243 257.077 76.8394C256.415 77.0376 255.488 77.2644 255.019 77.3434C253.425 77.6111 251.007 77.5359 248.71 77.1473C246.74 76.814 245.792 76.8759 244.317 77.4344C243.806 77.6279 243.126 77.9216 242.806 78.0873L242.223 78.3886L241.289 79.498L240.355 80.6073L240.122 81.2632C239.8 82.1656 239.691 82.7345 239.684 83.5518C239.67 85.001 240.018 86.2965 240.783 87.6468C241.214 88.4083 241.478 88.7658 242.18 89.5406C243.186 90.6503 243.758 91.0566 246.397 92.5368C247.081 92.9206 247.905 93.4234 248.228 93.6542C249.098 94.2765 250.532 95.5745 251.138 96.2897C251.857 97.1386 252.79 98.5532 253.283 99.5411C254.481 101.944 256.277 103.829 258.356 104.864C260.053 105.71 261.786 106.012 263.17 105.705C264.127 105.492 265.294 105 265.805 104.592C266.698 103.881 267.676 102.337 267.94 101.221C268.239 99.9589 268.158 98.2345 267.687 95.8754C267.336 94.1189 267.114 92.2165 267.15 91.2697C267.165 90.8771 267.296 89.7156 267.442 88.6885C268.228 83.1308 268.262 82.4202 267.811 80.9111C267.524 79.9507 267.392 79.6522 266.985 79.0352C266.502 78.3031 266.137 77.9195 265.459 77.4307Z" fill="#554B43"/>
</svg>
