<svg width="213" height="172" viewBox="0 0 213 172" fill="none" xmlns="http://www.w3.org/2000/svg">
<rect width="212.862" height="171.976" rx="10.1162" fill="#FBCED0"/>
<path d="M102.553 146.131C102.122 146.139 101.694 146.146 101.267 146.15C97.0025 145.923 92.6423 146.172 88.5069 145.331C84.9501 144.611 81.3308 143.947 77.8182 142.807C73.8119 141.506 69.9308 139.423 65.5079 139.73C62.2239 139.957 59.4154 138.696 56.7653 137.038C55.8513 136.464 54.9225 136.084 53.9457 135.678C49.6961 133.91 45.2548 134.907 40.9093 134.582C39.9952 134.513 38.3772 134.886 38.3919 133.874C36.7334 132.273 36.1363 130.684 35.0527 129.179C33.8401 127.498 32.0746 126.11 33.1471 124.042C34.1681 122.076 36.4238 123.347 38.1266 123.121C38.2961 124.096 38.79 124.305 39.7114 123.906C40.3896 123.614 41.429 122.792 40.983 124.71C40.7729 125.624 41.8381 125.109 42.0482 124.882C44.0495 122.715 48.5867 122.902 48.0891 118.335C47.9896 117.429 49.3386 116.723 50.2195 116.11C50.7723 115.722 51.679 115.481 51.0488 114.316C48.5793 114.656 46.9834 116.859 44.6208 117.388C44.3039 115.85 44.9857 114.181 43.9943 112.73C42.8111 111.006 43.1871 109.519 44.2781 107.783C45.5791 105.711 47.3446 103.633 45.9919 100.746C45.4759 99.6465 46.7438 98.8902 47.5178 98.1851C47.9306 97.8124 48.6199 97.5347 48.8742 98.1522C49.7919 100.403 51.0451 98.8135 52.2503 98.5979C54.1042 98.2654 55.6744 96.2194 57.6352 97.2534C58.9731 97.9585 59.8208 97.5201 60.8565 97.0123C63.9857 95.4814 67.1149 93.9505 70.2441 92.416C70.6864 95.3645 68.2206 98.1412 69.4664 101.232C70.6569 100.86 70.7638 99.5004 72.2233 99.4346C71.8547 102.27 71.5599 105.058 71.1102 107.82C70.3694 112.383 70.3251 112.376 74.6485 111.302C74.7038 113.494 72.2823 114.392 71.8363 116.223C73.2184 116.932 73.5649 114.846 74.7001 115.467C75.2272 116.431 74.2283 117.659 75.3193 118.371C76.7568 118.295 76.9521 116.639 78.2237 116.398C78.3932 118.864 78.2642 121.36 79.9707 123.848C82.0605 119.822 83.8002 116.077 86.4429 112.873C88.5474 116.194 90.652 119.511 93.044 123.285C93.5563 120.921 93.9433 119.135 94.5036 116.57C95.1117 118.737 95.683 120.125 95.8636 121.561C96.1695 124.027 96.7924 125.167 99.4793 123.526C100.552 122.872 102.063 122.171 103.663 122.883C103.121 124.458 102.041 125.302 100.895 126.069C100.404 126.398 99.4719 126.351 99.6599 127.231C99.8073 127.911 100.526 128.115 101.167 128.258C102.104 128.463 103.032 128.74 103.983 128.835C106.972 129.135 109.973 129.365 112.999 129.628C112.722 131.027 111.226 130.757 110.798 132.251C114.407 130.83 117.2 131.301 118.151 135.887C118.962 134.093 118.243 132.679 119.168 131.678C120.879 132.08 120.639 136.771 123.676 133.475C123.757 133.388 124.465 133.731 124.763 134.001C126.544 135.616 128.866 136.292 130.871 137.509C131.446 137.86 132.216 138.839 132.688 137.757C133.462 135.985 134.405 136.928 135.179 137.461C136.632 138.462 138.157 138.883 139.923 139.131C144.044 139.712 146.73 142.273 148.271 146.051C146.981 147.246 146.038 149.032 143.804 148.612C143.542 145.262 141.242 144.093 138.364 143.475C140.266 145.24 142.138 146.935 141.95 149.811C137.785 149.624 133.661 150.381 129.452 148.802C126.031 147.523 122.629 145.415 118.641 146.069C113.279 144.652 107.923 146.036 102.564 146.124L102.553 146.131Z" fill="#EBAF81"/>
<path d="M70.2368 92.4235C67.1076 93.9543 63.9784 95.4852 60.8493 97.0197C59.8136 97.5275 58.9695 97.966 57.6279 97.2608C55.6671 96.2269 54.097 98.2729 52.2431 98.6054C51.0378 98.8209 49.7847 100.41 48.8669 98.1596C48.6163 97.5422 47.9234 97.8198 47.5106 98.1925C46.7366 98.8976 45.4687 99.6503 45.9847 100.754C47.3374 103.64 45.5719 105.715 44.2708 107.791C43.1798 109.53 42.8076 111.013 43.987 112.738C44.9785 114.184 44.2966 115.858 44.6136 117.392C44.1566 117.787 43.6995 118.181 43.2425 118.576C43.4378 115.536 41.2522 112.854 41.9414 109.709C42.1626 108.693 42.052 107.67 42.944 106.855C45.008 104.966 44.9527 102.898 43.2683 100.776C43.8543 100.377 44.8495 99.4749 44.0202 99.2557C42.181 98.7698 41.3112 96.8078 39.0887 96.837C36.6229 96.8699 34.1424 96.099 31.6693 95.6752C31.5514 95.065 31.5477 94.4074 31.297 93.8557C29.7122 90.3336 29.8301 90.0523 33.4827 89.201C34.7321 88.9087 37.9461 84.8495 37.7766 83.6402C37.6955 83.0446 37.4633 82.3358 37.0431 81.9559C36.5308 81.4919 35.6057 81.3969 36.1954 80.3848C38.0051 79.2522 38.5469 77.6885 38.4031 75.5511C38.0972 70.9293 40.2313 67.4437 44.105 64.9447C46.3459 63.4978 48.5352 61.9999 50.3375 59.994C50.8093 59.4679 51.5022 58.8395 52.1362 58.792C58.7078 58.2914 64.9846 54.4625 71.7775 56.7788C76.7458 58.4741 81.8801 59.9538 85.809 63.7499C85.7869 65.0287 85.669 66.3586 87.5966 66.3257C88.4738 66.3111 88.9382 66.797 89.0451 67.641C88.6913 68.4814 88.3338 69.3253 87.9799 70.1657C87.3165 70.3301 87.1175 70.805 87.1285 71.4189C87.0659 72.6501 86.1997 73.4978 85.6395 74.4915C77.5825 77.1623 72.0944 83.315 70.8892 90.9766C70.8118 91.4808 70.4616 91.9412 70.2368 92.4198V92.4235ZM51.7934 91.5466C60.8087 88.9964 73.9742 80.1546 74.8808 76.2307C71.9875 77.4473 69.0316 78.6347 66.1162 79.9245C62.7105 81.4297 58.8516 81.8024 55.7519 84.0494C55.129 84.5024 53.7542 85.171 54.8378 85.8104C57.1819 87.1988 55.0884 87.7432 54.5688 88.5908C53.9127 89.6613 52.291 89.8002 51.7934 91.5429V91.5466ZM66.1383 66.2088C66.0719 64.8972 63.9969 64.9191 65.1026 63.3773C65.7955 62.4164 64.5718 62.42 64.1111 62.5808C58.8774 64.4441 53.6768 66.3915 49.8326 71.09C56.489 72.1934 60.3333 66.2636 66.1383 66.2088Z" fill="#F7D9BE"/>
<path d="M131.523 25.4858C134.564 27.7035 137.951 29.5924 138.942 33.6698C139.064 34.1704 139.853 34.9048 140.284 34.8719C143.395 34.6453 145.654 36.5014 148.219 37.7071C150.718 38.8799 153.162 38.0761 155.451 36.7243C157.555 35.4857 159.535 33.8964 162.295 34.4846C163.913 34.8317 164.348 32.866 165.808 32.5664C168.524 32.0111 171.211 32.2888 173.876 32.5664C176.327 32.8222 178.594 36.4393 178.21 38.836C177.34 44.3165 177.595 49.9905 175.07 55.1859C173.994 57.4 176.596 57.3818 177.528 58.1563C179.345 59.6616 181.21 63.37 181.745 65.7668C182.725 70.1511 181.911 74.9008 184.458 78.9636C184.918 79.7016 185.268 81.0535 184.616 81.3165C181.244 82.683 184.362 84.2431 184.59 85.4743C184.749 86.3476 187.026 86.9285 184.446 87.6994C184.31 87.7396 184.255 88.0428 184.163 88.2219C187.097 88.7955 184.535 90.9109 185.279 92.2774C186.363 94.2649 186.138 96.2086 183.252 97.1184C181.627 97.6299 182.405 99.201 182.917 100.363C184.118 103.088 184.904 105.847 184.933 108.912C184.966 112.442 181.21 114.787 182.213 118.488C178.925 119.767 179.559 122.306 179.943 124.915C180.094 125.938 179.526 126.99 178.033 126.892C176.644 126.797 175.247 126.84 173.857 126.775C173.058 126.738 172.055 126.11 171.686 127.315C171.384 128.306 172.214 128.872 172.932 129.325C174.639 130.399 176.401 131.283 177.186 133.421C178.667 137.451 177.414 140.425 173.293 142.094C171.454 142.84 169.523 142.796 167.599 142.843L167.441 142.573C168.019 142.189 168.233 141.616 168.281 140.962C170.437 141.594 172.066 139.957 174.008 139.661C176.471 139.789 174.834 138.046 175.155 137.198C176.157 136.53 176.043 135.748 175.553 134.776C174.436 132.577 172.718 131.221 170.279 130.754C169.291 129.398 168.69 127.922 168.815 126.216C169.258 125.894 169.383 124.787 170.293 125.642C170.367 126.077 170.441 126.508 170.514 126.943C170.662 126.614 170.809 126.285 170.957 125.956C171.322 125.788 171.69 125.624 172.055 125.456C173.124 125.529 174.193 125.66 175.258 125.649C175.958 125.642 177.337 125.891 177.259 125.346C176.968 123.304 178.667 121.444 177.661 119.387C177.311 118.675 176.367 117.896 177.023 117.115C177.797 116.194 178.527 117.246 179.239 117.582C180.16 118.017 181.181 118.035 181.059 116.811C180.79 114.093 181.708 111.722 182.379 109.172C183.263 105.807 182.456 102.314 180.624 99.1644C179.766 97.6847 179.117 96.026 180.75 94.5974C182.792 92.8071 182.814 90.8744 180.713 89.0878C179.618 88.1561 179.6 82.0144 180.691 81.1412C182.795 79.4569 183.322 75.8909 181.328 74.2724C180.105 73.275 179.78 72.3031 179.987 71.0462C180.326 68.982 179.375 67.1917 178.398 65.712C176.729 63.1873 176.968 59.6689 173.924 57.8348C172.943 57.2429 173.065 55.3796 173.599 54.5429C175.35 51.799 174.712 48.6131 175.59 45.6975C176.563 42.4568 177.348 38.3903 174.101 35.9424C171.506 33.9877 168.229 34.7148 165.104 35.9533C161.06 37.5536 156.826 38.6972 152.653 39.9614C147.49 41.5214 143.627 36.8229 138.718 36.9983C138.511 37.0056 138.242 36.3589 138.062 35.9862C135.751 31.2475 132.946 27.0458 127.284 25.7305C126.592 25.5698 123.484 25.0839 123.418 24.2326C125.589 23.4653 129.676 24.9743 131.523 25.4784V25.4858Z" fill="#D7B08F"/>
<path d="M38.1229 123.121C36.4238 123.348 34.1644 122.072 33.1435 124.042C32.0709 126.11 33.8364 127.494 35.049 129.179C36.1326 130.684 38.4215 131.393 38.3883 133.874C38.3736 134.889 39.9953 134.517 40.9057 134.582C45.2511 134.908 49.6924 133.914 53.9421 135.679C54.9225 136.084 55.8476 136.468 56.7617 137.038C59.408 138.693 62.2203 139.957 65.5042 139.73C69.9271 139.423 73.8082 141.506 77.8146 142.807C81.3271 143.947 84.9465 144.612 88.5032 145.331C92.6386 146.172 96.9988 145.923 101.263 146.15C97.9018 146.844 94.7358 147.26 91.0869 146.738C87.2648 146.19 83.4575 145.741 79.6206 144.959C75.9717 144.213 72.7541 142.43 69.1752 141.612C68.2907 141.411 67.3876 140.83 66.4625 141.002C61.6674 141.875 57.9632 139.413 54.1817 137.176C52.7737 136.343 51.3363 135.788 49.6408 135.85C47.3925 135.931 45.1406 135.861 42.8886 135.854C35.8046 135.836 33.313 133.87 31.6803 127.009C30.6114 122.515 30.98 121.861 35.8415 121.897C38.5836 121.915 40.1169 119.676 42.5016 119.226C41.3885 120.907 40.1796 122.489 38.1156 123.121H38.1229Z" fill="#F7D9BE"/>
<path d="M38.1231 123.121C40.1871 122.489 41.3923 120.907 42.5091 119.226C42.7524 119.007 42.9993 118.791 43.2426 118.572C43.6996 118.178 44.1566 117.783 44.6136 117.388C46.9762 116.859 48.5721 114.652 51.0416 114.316C51.6718 115.481 50.7651 115.722 50.2123 116.11C49.3351 116.723 47.9824 117.429 48.0819 118.335C48.5795 122.902 44.0424 122.719 42.041 124.882C41.8309 125.108 40.7657 125.62 40.9758 124.71C41.4218 122.788 40.3787 123.614 39.7043 123.906C38.7828 124.305 38.2852 124.096 38.1194 123.121H38.1231Z" fill="#CC884C"/>
<path d="M36.1952 80.3847C35.6092 81.3968 36.5306 81.4881 37.0429 81.9558C37.4631 82.3358 37.6916 83.0446 37.7764 83.6401C37.9423 84.8458 34.7283 88.9086 33.4825 89.2009C29.83 90.0522 29.712 90.3335 31.2969 93.8556C31.5438 94.4073 31.5512 95.0649 31.6691 95.6751C28.2709 95.8103 28.9786 92.6134 28.0203 90.9364C27.1836 89.4749 29.1665 89.0073 30.228 88.43C32.7122 87.0708 34.533 85.3281 34.2676 82.2225C34.1533 80.8524 34.8499 80.2751 36.1952 80.3884V80.3847Z" fill="#F2E0CF"/>
<path d="M31.6693 95.6753C34.1424 96.0955 36.6193 96.87 39.0887 96.8371C41.3112 96.8079 42.1847 98.7699 44.0202 99.2558C44.8495 99.475 43.858 100.381 43.2683 100.776C40.8173 99.9208 38.4216 98.8357 35.9005 98.2913C34.0577 97.893 32.5686 97.3706 31.6693 95.6753Z" fill="#F2E0CF"/>
<path d="M124.598 23.4286C124.535 23.4469 124.66 23.4103 124.598 23.4286L125.656 24.0607C125.777 24.8316 126.632 25.5842 127.281 25.734C132.942 27.0493 135.747 31.251 138.058 35.9897C138.239 36.3587 138.508 37.0091 138.714 37.0018C143.62 36.8264 147.482 41.5249 152.65 39.9648C156.826 38.7043 161.057 37.5608 165.1 35.9568C168.226 34.7183 171.506 33.9912 174.097 35.9459C177.344 38.3901 176.559 42.4566 175.586 45.701C174.709 48.6166 175.35 51.8025 173.596 54.5464C173.061 55.3831 172.94 57.2464 173.92 57.8383C176.968 59.6724 176.725 63.1908 178.395 65.7155C179.371 67.1915 180.322 68.9855 179.983 71.0497C179.777 72.3066 180.101 73.2821 181.325 74.2759C183.315 75.8981 182.792 79.4603 180.687 81.1447C179.596 82.0179 179.615 88.1596 180.709 89.0913C182.814 90.8779 182.788 92.8143 180.746 94.6009C179.113 96.0295 179.762 97.6882 180.621 99.1679C182.453 102.317 183.26 105.81 182.375 109.175C181.704 111.725 180.783 114.097 181.056 116.815C181.177 118.039 180.156 118.021 179.235 117.586C178.52 117.25 177.794 116.197 177.02 117.118C176.364 117.896 177.307 118.678 177.658 119.391C178.664 121.448 176.968 123.304 177.256 125.35C177.333 125.898 175.955 125.646 175.254 125.653C174.333 125.664 173.412 125.565 172.49 125.492C172.251 125.474 172.074 125.269 172.092 125.032C172.129 124.535 172.144 124.027 172.313 123.578C173.522 120.326 176.423 117.6 175.398 113.654C175.302 113.285 175.501 112.577 175.984 112.902C178.362 114.498 177.226 112.153 177.167 111.758C176.928 110.143 176.511 108.554 176.15 107.009C176.08 106.716 176.334 106.439 176.633 106.49C177.215 106.581 177.683 107.279 178.17 106.713C178.69 106.113 178.019 105.54 177.809 104.981C177.381 103.826 175.977 102.668 178.144 101.678C178.697 101.426 178.162 100.691 177.713 100.428C176.345 99.6356 175.184 98.4408 173.762 97.9659C173.533 97.8891 173.283 98.0097 173.209 98.2362C172.118 101.598 172.582 104.955 172.431 108.222C172.236 112.482 168.874 115.675 169.136 119.939C169.155 120.242 169.258 120.987 168.469 121.09C167.216 121.25 167.238 121.276 167.459 122.39C167.717 123.684 167.883 125.006 168.709 126.102C168.768 126.183 168.801 126.278 168.793 126.376C168.716 128.017 169.309 129.445 170.264 130.761C170.876 131.616 171.488 132.474 172.099 133.329L172.125 133.304C167.415 133.453 163.641 131.371 160.128 128.415C159.833 128.167 159.369 128.404 159.421 128.784C159.538 129.646 160.224 130.333 160.25 131.115C160.257 131.404 159.977 131.616 159.697 131.539C157.497 130.925 157.541 131.082 157.858 133.735C157.913 134.202 158.204 134.856 157.651 135.2C157.522 135.28 157.357 135.28 157.228 135.207C156.468 134.78 156.907 133.673 156.221 133.146C156.052 133.015 155.797 133.037 155.65 133.194C154.456 134.48 154.054 136.036 154.05 137.735C154.05 138.042 153.733 138.251 153.45 138.13C151.515 137.308 149.576 136.486 147.623 135.656C147.357 135.543 147.059 135.715 147.022 135.996C146.79 137.794 146.649 138.061 145.382 138.265C145.065 138.316 144.917 138.689 145.109 138.945C146.159 140.34 147.206 141.711 148.216 143.106C148.802 143.917 149.432 144.765 148.747 145.616C148.544 145.868 148.146 145.806 148.013 145.514C146.439 142.039 143.815 139.701 139.901 139.146C138.135 138.897 136.61 138.477 135.157 137.476C134.383 136.943 133.436 136 132.666 137.772C132.194 138.853 131.424 137.874 130.849 137.523C128.844 136.303 126.522 135.631 124.741 134.016C124.443 133.746 123.735 133.402 123.654 133.49C120.868 136.515 120.838 132.814 119.534 131.871C119.334 131.729 119.047 131.784 118.922 131.992C118.546 132.628 118.634 133.402 118.538 134.316C118.49 134.769 117.864 134.838 117.702 134.414C116.655 131.678 114.632 131.137 112.066 131.835C111.594 131.963 111.292 131.345 111.698 131.071C112.063 130.826 112.446 130.633 112.704 130.275C112.899 130.004 112.722 129.624 112.387 129.595C109.556 129.354 106.751 129.135 103.95 128.853C103.003 128.758 102.071 128.481 101.134 128.276C100.493 128.134 99.7743 127.929 99.6269 127.25C99.4389 126.373 100.371 126.417 100.862 126.088C101.901 125.394 102.881 124.634 103.464 123.329C103.567 123.092 103.445 122.81 103.198 122.737C101.761 122.314 100.427 122.946 99.45 123.541C96.7631 125.182 96.1402 124.042 95.8343 121.575C95.7053 120.527 95.3662 119.508 94.9534 118.192C94.8207 117.772 94.2125 117.798 94.1167 118.229C93.8071 119.65 93.538 120.892 93.2395 122.273C93.1584 122.65 92.6572 122.737 92.4508 122.412C90.3351 119.076 88.4333 116.077 86.5388 113.088C86.4614 112.968 86.4504 112.814 86.5094 112.683C87.7846 109.891 90.4457 107.853 90.9838 104.659C91.017 104.55 91.0502 104.44 91.087 104.33C91.0207 104.411 90.958 104.488 90.8917 104.568C90.4715 104.524 89.9039 104.634 89.6533 104.404C88.7687 103.592 89.0783 101.327 87.0622 101.926C86.8374 101.992 86.5978 101.883 86.5204 101.663C86.4614 101.499 86.4209 101.338 86.4578 101.199C87.6372 96.636 84.8323 91.9995 86.7231 87.4544C86.9332 86.9466 87.0733 86.4314 87.0733 85.898C87.0733 85.4267 86.4062 85.3171 86.2366 85.7555C86.1518 85.9747 86.0671 86.1866 85.9307 86.3547C85.6837 86.6506 85.1972 86.468 85.1751 86.088C84.9908 82.9167 86.2108 80.0413 87.2207 77.1586C87.7551 75.6314 87.6704 74.7618 86.2956 74.5609C85.986 74.517 85.8386 74.159 86.0118 73.8996C86.4725 73.2127 86.9664 72.5441 87.088 71.7001C87.1101 71.543 87.2318 71.4188 87.3829 71.3676C87.8583 71.2105 88.1348 70.9182 88.0131 70.3592C88.4849 69.3472 88.8535 68.5543 89.3216 67.5423C91.2197 66.68 92.0011 64.4988 94.0835 63.6329C95.1155 63.2018 94.0541 62.9497 93.4422 62.6647C93.2727 62.588 93.1732 62.4016 93.2026 62.219C93.7555 58.4667 96.2913 56.5339 100.025 55.3246C100.445 55.1894 100.408 54.5866 99.977 54.4989C98.5986 54.2176 97.6292 54.667 96.6488 54.8971C96.0149 55.0433 95.2888 55.1602 94.9165 54.5098C94.559 53.8814 94.9607 53.337 95.4104 52.8182C96.5714 51.481 97.6403 50.0598 99.1256 49.0404C99.1883 48.9966 99.2399 48.9344 99.273 48.865C100.206 46.7386 101.518 45.1091 104.168 45.1018C104.746 45.1018 104.975 44.5757 105.126 44.0751C105.137 44.0386 105.152 44.0021 105.174 43.9655C106.184 42.336 107.85 42.6831 109.387 42.621C110.526 42.5772 111.981 42.7525 110.983 40.9148C110.946 40.8454 110.924 40.7686 110.927 40.6919C110.957 40.0306 110.99 39.3693 111.019 38.708C111.027 38.5144 111.171 38.3499 111.362 38.3098C112.641 38.043 112.829 37.0566 112.748 35.8545C112.608 33.7829 112.693 31.7515 113.953 29.9686C113.998 29.9065 114.023 29.8334 114.031 29.7567C114.049 29.5009 114.068 29.2451 114.086 28.9894C114.101 28.8104 114.226 28.6569 114.403 28.6094C115.31 28.3646 115.479 27.6631 115.358 26.779C115.35 26.7388 115.354 26.6949 115.358 26.6511C115.372 26.5634 115.387 26.4757 115.402 26.388C115.424 26.2346 115.638 26.198 115.671 26.0446C116.084 24.0424 116.449 23.425 117.031 22.9244L117.3 22.8331C118.417 22.1718 118.608 22.0658 120.352 21.927C120.938 21.9014 122.088 21.9416 122.088 21.9416L122.711 22.0841C123.698 22.4677 124.583 23.4432 124.583 23.4432L124.598 23.4286ZM145.105 60.4945C145.982 58.485 148.909 58.379 149.731 56.2892C149.801 56.1138 149.745 55.9165 149.602 55.7959C149.465 55.6863 149.355 55.595 149.248 55.5986C148.378 55.6242 147.508 55.6827 146.638 55.7375C146.38 55.7521 146.167 55.5402 146.181 55.2844C146.314 53.264 145.234 51.5322 143.528 51.0133C143.281 50.9366 143.152 50.6736 143.248 50.4361C143.76 49.1865 145.171 47.9224 143.572 46.7313C141.254 44.9995 139.967 45.6316 139.267 48.4924C139.101 49.1646 138.843 49.5921 138.187 49.698C138.102 49.7127 138.014 49.698 137.936 49.6579C136.735 49.0806 135.53 48.5033 134.328 47.926C134.162 47.8457 134.063 47.6703 134.088 47.4876C134.118 47.2684 134.125 47.0638 133.665 47.1661C133.79 47.3378 133.915 47.5095 134.037 47.6813C134.092 47.758 134.122 47.8493 134.118 47.9407C134.096 48.6897 134.052 49.4204 133.256 49.6542C133.023 49.72 132.776 49.5957 132.71 49.3656C132.666 49.2158 132.622 49.0696 132.577 48.9198C132.5 48.9746 132.423 49.0258 132.341 49.0806C132.474 49.2523 132.607 49.424 132.736 49.5957C132.795 49.6725 132.824 49.7638 132.824 49.8625C132.787 52.3798 132.751 54.8935 132.71 57.4108C132.706 57.725 132.375 57.926 132.091 57.7908C131.899 57.6995 131.73 57.5935 131.637 57.4437C128.615 52.6027 124.17 52.4017 119.276 53.6841C118.793 53.812 117.96 54.3491 117.978 54.382C119.069 56.7349 116.762 56.0444 115.944 56.6545C115.844 56.7276 115.715 56.7495 115.59 56.7203C112.166 55.9421 110.669 59.4386 107.949 60.3008C106.353 60.805 105.207 61.9815 106.471 63.9654C107.452 65.5072 106.932 66.3256 105.045 66.311C104.551 66.311 103.965 66.1174 103.335 66.5923C103.032 66.8189 103.18 67.2938 103.56 67.3486C106.774 67.7944 107.824 71.4589 111.023 71.8243C111.381 71.8645 111.735 72.2737 112.015 72.5769C115.328 76.1538 117.51 80.5601 120.263 84.5023C123.617 89.2995 127.904 89.7964 132.666 90.4175C133.02 90.465 133.738 90.1837 133.753 90.0156C133.934 87.4873 137.347 88.7551 137.995 86.837C138.076 86.6031 138.334 86.4899 138.57 86.5776C141.486 87.681 144.659 84.5352 147.707 86.4972C148.021 86.6981 148.419 86.4424 148.367 86.0734C148.127 84.3416 149.37 84.1625 151.128 84.0639C154.375 83.8776 157.596 83.7022 160.869 84.685C161.179 84.7763 161.477 84.5023 161.415 84.1881C161.131 82.8253 160.161 82.0654 159.826 81.0277C159.76 80.8195 159.859 80.6003 160.058 80.5053C160.946 80.0778 162.358 80.3007 162.189 78.4739C161.816 74.4549 160.368 72.3687 156.52 70.9986C156.38 70.9474 156.273 70.8342 156.243 70.688C156.078 69.866 155.204 69.3325 155.318 68.3461C155.716 64.8715 151.161 60.067 147.774 60.8817C146.985 61.0717 146.218 61.2033 145.437 61.101C145.153 61.0644 144.995 60.7575 145.109 60.4945H145.105ZM121.738 39.9941C121.841 39.9283 121.973 39.9246 122.091 39.9539C124.119 40.4727 125.316 40.0196 125.132 37.6046C125.077 36.8885 125.508 36.7387 126.345 36.6802C128.836 36.5049 127.819 34.2177 128.195 32.9097C128.663 31.2729 127.196 31.1158 125.943 31.2364C124.443 31.3825 123.142 32.3178 121.745 32.5809C117.993 33.286 115.988 35.807 116.747 39.3912C116.854 39.8954 117.245 40.7869 117.517 40.4252C118.852 38.6459 120.499 40.7723 121.745 39.9904L121.738 39.9941ZM171.241 47.1917C171.554 45.4818 171.285 44.3272 169.062 45.3612C168.565 45.595 167.691 45.785 167.949 45.1201C168.69 43.2239 166.059 43.3444 166.202 41.7843C166.287 40.8563 165.255 40.3923 164.363 40.4069C163.442 40.4179 163.272 41.2655 163.047 41.978C162.793 42.7854 162.402 43.5673 162.259 44.393C161.938 46.2198 162.122 48.8796 163.563 49.1573C165.329 49.4971 165.657 52.04 167.551 51.5322C167.761 51.4774 167.979 51.5723 168.071 51.766C169.785 55.5219 170.323 51.3312 171.222 50.827C173.043 49.8077 171.119 48.4851 171.241 47.1953V47.1917ZM142.846 118.371C142.595 118.221 142.267 118.371 142.208 118.653C142.16 118.872 142.134 118.992 142.179 119.084C143.59 122.145 142.673 126.3 146.893 128.094C147.998 128.565 148.12 130.118 148.99 131.473C149.244 131.871 149.874 131.605 149.771 131.144C148.356 124.824 149.012 118.382 145.061 113.242C144.788 112.887 144.213 113.132 144.287 113.57C144.468 114.615 144.737 115.638 144.958 116.669C145.455 118.963 144.663 119.442 142.846 118.36V118.371ZM89.5796 97.9513C90.6226 95.9929 91.2381 93.8556 91.8721 91.6561C92.0232 91.1336 92.823 91.3163 92.7124 91.8461C92.6424 92.1822 92.5208 92.5074 92.4618 92.8252C92.3697 93.3112 93.0663 93.5304 93.28 93.081C94.629 90.202 96.3539 84.1845 96.6894 81.3931C96.7373 80.9766 96.2139 80.7501 95.9338 81.0643C91.6731 85.8432 88.061 90.9473 88.765 97.8088C88.8093 98.2289 89.3805 98.3312 89.5796 97.9549V97.9513Z" fill="#CC884C"/>
<path d="M91.0058 104.645C90.4493 107.915 87.6702 109.975 86.4355 112.88C83.7928 116.084 82.0532 119.829 79.9634 123.855C78.2569 121.367 78.3822 118.872 78.2163 116.406C76.9411 116.65 76.7494 118.306 75.312 118.379C74.221 117.666 75.2198 116.435 74.6928 115.474C73.5575 114.853 73.2074 116.939 71.8289 116.23C72.2749 114.403 74.6964 113.501 74.6412 111.309C70.3178 112.383 70.362 112.387 71.1028 107.827C71.5525 105.065 71.8437 102.274 72.2159 99.442C70.7564 99.5077 70.6495 100.867 69.459 101.24C68.2132 98.1486 70.679 95.3718 70.2367 92.4234C70.4615 91.9448 70.8117 91.4844 70.8891 90.9802C72.098 83.3149 77.5824 77.1659 85.6394 74.4951C87.6481 74.5097 87.8435 75.3939 87.2316 77.1367C86.1591 80.2021 84.8469 83.2565 85.2376 86.6653C86.4097 86.574 86.0522 85.2988 86.8778 84.7983C87.2427 85.7373 87.0842 86.5959 86.7377 87.4325C84.8469 91.9776 87.6518 96.6141 86.4724 101.177C86.406 101.437 86.6014 101.758 86.6751 102.051C89.1371 101.02 88.7317 103.523 89.6716 104.382C89.9222 104.612 90.4861 104.499 90.91 104.546L91.0058 104.637V104.645Z" fill="#B26631"/>
<path d="M143.797 148.616C143.402 149.357 142.857 149.869 141.939 149.814C142.131 146.939 140.258 145.243 138.356 143.479C141.235 144.093 143.535 145.265 143.797 148.616Z" fill="#B8784A"/>
<path d="M51.7932 91.5466C52.2908 89.8039 53.9125 89.665 54.5686 88.5945C55.0883 87.7469 57.1818 87.2025 54.8376 85.8141C53.754 85.1711 55.1288 84.5061 55.7517 84.0531C58.8477 81.8061 62.7104 81.4335 66.116 79.9282C69.0277 78.6421 71.9837 77.451 74.8807 76.2344C73.974 80.1547 60.8122 88.9964 51.7932 91.5503V91.5466Z" fill="#EBAF81"/>
<path d="M66.1382 66.2089C60.3369 66.2637 56.4926 72.1935 49.8325 71.0901C53.6804 66.3952 58.8773 64.4442 64.1111 62.5809C64.5718 62.4164 65.7918 62.4128 65.1025 63.3773C63.9968 64.9192 66.0682 64.8972 66.1382 66.2089Z" fill="#EBAF81"/>
<path d="M87.9799 70.1694C88.2416 70.9513 87.814 71.2728 87.1285 71.4226C87.1174 70.8088 87.3165 70.3338 87.9799 70.1694Z" fill="#E5D5C2"/>
<path d="M172.118 133.322C171.506 132.467 170.894 131.608 170.282 130.753C172.722 131.217 174.44 132.573 175.557 134.772C176.05 135.744 176.161 136.526 175.162 137.195C173.994 136.405 173.039 135.123 171.189 135.437C171.926 137.107 173.994 137.728 174.012 139.661C172.074 139.957 170.441 141.59 168.285 140.962C167.68 138.119 165.893 136.599 162.505 135.664C163.928 137.995 166.674 138.393 166.339 140.962C162.763 140.702 158.82 142.123 155.937 138.634C155.65 138.283 154.717 138.455 154.083 138.386C153.977 136.329 154.356 134.447 155.893 132.964C157.154 133.388 156.273 134.926 157.463 135.298C158.289 135.003 157.939 134.25 157.88 133.735C157.544 130.914 157.515 130.918 160.172 131.667C160.696 130.362 158.974 129.442 159.542 127.893C163.224 131.119 167.164 133.461 172.144 133.3C172.214 133.351 172.287 133.406 172.357 133.457C172.276 133.413 172.199 133.369 172.118 133.326V133.322Z" fill="#EBAF81"/>
<path d="M168.815 126.219C167.905 125.101 167.739 123.727 167.47 122.387C167.245 121.272 167.227 121.243 168.48 121.086C169.269 120.987 169.166 120.238 169.147 119.935C168.885 115.671 172.247 112.474 172.442 108.218C172.601 104.827 172.092 101.338 173.352 97.8452C174.974 98.2033 176.22 99.5551 177.724 100.425C178.173 100.684 178.708 101.418 178.155 101.674C175.988 102.664 177.392 103.826 177.82 104.977C178.026 105.536 178.7 106.11 178.181 106.709C177.543 107.447 176.939 106.033 176.073 106.621C176.449 108.284 176.917 110.004 177.178 111.751C177.237 112.145 178.372 114.491 175.995 112.894C175.512 112.573 175.313 113.278 175.409 113.647C176.434 117.593 173.533 120.319 172.324 123.57C172.107 124.151 172.144 124.823 172.062 125.452C171.698 125.616 171.329 125.784 170.964 125.949C170.743 125.843 170.522 125.741 170.301 125.638C169.394 124.783 169.265 125.894 168.823 126.212L168.815 126.219Z" fill="#B26631"/>
<path d="M166.339 140.962C166.67 138.393 163.924 137.995 162.505 135.664C165.893 136.603 167.684 138.123 168.285 140.962C168.233 141.616 168.023 142.189 167.444 142.573C166.593 142.357 166.46 141.663 166.339 140.958V140.962Z" fill="#B8784A"/>
<path d="M174.009 139.661C173.99 137.732 171.922 137.111 171.185 135.437C173.036 135.123 173.99 136.405 175.159 137.195C174.834 138.042 176.471 139.789 174.009 139.657V139.661Z" fill="#CC884C"/>
<path d="M170.293 125.642C170.514 125.744 170.736 125.846 170.957 125.952C170.809 126.285 170.662 126.614 170.514 126.943C170.441 126.508 170.367 126.077 170.293 125.642Z" fill="#CC884C"/>
<path d="M148.289 138.422C148.205 138.335 148.12 138.243 148.035 138.156C148.09 138.17 148.172 138.163 148.201 138.2C148.249 138.258 148.267 138.342 148.297 138.412L148.289 138.422Z" fill="#CC884C"/>
<path d="M148.297 138.415C148.389 138.463 148.481 138.51 148.57 138.558C148.474 138.514 148.382 138.47 148.286 138.426L148.293 138.415H148.297Z" fill="#CC884C"/>
<path d="M156.269 70.9109C160.305 72.281 161.805 74.3709 162.188 78.4739C162.38 80.5382 160.559 79.9865 159.748 80.7099C159.995 82.0983 161.459 82.9094 161.495 84.8896C158.009 83.6876 154.585 83.8703 151.131 84.0712C149.019 84.1918 147.648 84.4256 148.71 87.3485C145.197 83.6291 141.46 88.229 138.098 86.3657C137.877 88.978 133.956 87.3156 133.76 90.0266C133.749 90.1947 133.027 90.476 132.673 90.4285C127.911 89.8074 123.624 89.3105 120.27 84.5133C117.514 80.5711 115.335 76.1611 112.022 72.5879C111.742 72.2847 111.388 71.8755 111.03 71.8353C107.562 71.4407 106.615 67.1623 102.704 67.3194C103.581 65.9822 104.4 66.3183 105.056 66.322C106.939 66.3329 107.463 65.5145 106.482 63.9764C105.218 61.9925 106.364 60.816 107.96 60.3118C110.739 59.4313 112.239 55.8032 115.829 56.7861C115.818 57.7689 116.504 59.0075 114.856 59.3911C111.657 58.8686 113.994 61.7659 112.829 62.7268C112.118 63.3151 113.426 63.6402 114.078 63.8046C116.017 64.3856 117.532 66.121 119.78 65.8653C118.675 67.2792 119.95 68.4995 120.105 69.8112C118.424 71.2799 119.286 72.924 119.939 74.4147C120.912 76.6398 122.099 78.7771 123.197 80.951C123.267 86.2341 125.445 87.8819 130.557 86.4826C131.353 86.2634 132.098 85.8651 132.865 85.5473C137.91 84.7398 140.693 80.4249 144.707 78.0099C145.009 77.8272 144.957 77.0636 145.072 76.5703C145.116 76.3731 145.12 76.1721 145.086 75.9712C147.611 77.2061 149.977 74.9153 152.344 75.54C155.064 76.2561 155.403 74.4366 155.628 72.8181C155.731 72.0654 155.753 71.4553 156.28 70.9073L156.269 70.9109Z" fill="#EBAF81"/>
<path d="M143.104 50.9146C145.193 51.28 146.509 53.3845 146.126 55.7703C147.169 55.7082 148.208 55.6278 149.248 55.5986C149.41 55.5949 149.583 55.8068 149.834 55.9749C149.148 58.5507 145.54 58.3826 144.939 61.0059C143.469 61.2361 143.107 62.3833 142.794 63.5634C138.261 65.7118 135.448 61.9266 131.958 60.4761C132.562 59.7856 132.883 59.011 132.71 58.0794C132.75 55.2917 132.795 52.5076 132.835 49.7199L132.824 49.7309C134.114 49.6541 134.103 48.7188 134.129 47.8054L134.107 47.8237C135.426 48.4558 136.742 49.0878 138.058 49.7236C137.686 51.2435 137.335 52.767 136.934 54.2796C136.609 55.4999 137.45 56.0662 138.286 56.4645C139.208 56.9029 139.44 55.9201 139.96 55.4415C141.36 54.1554 140.911 51.6307 143.107 50.9183L143.104 50.9146ZM144.128 53.9544C144.114 54.1042 144.099 54.2504 144.084 54.4002C144.143 54.3308 144.243 54.265 144.25 54.1919C144.257 54.1189 144.176 54.0348 144.128 53.9544Z" fill="#EBAF81"/>
<path d="M142.794 63.5598C143.111 62.3797 143.468 61.2325 144.939 61.0023C145.897 61.258 146.819 61.1119 147.77 60.8817C151.157 60.067 155.712 64.8715 155.314 68.346C155.193 69.4166 156.236 69.9573 156.265 70.9109C155.738 71.4553 155.716 72.0654 155.613 72.8217C155.388 74.4403 155.049 76.2598 152.329 75.5437C149.963 74.9189 147.596 77.2061 145.072 75.9711C145.754 74.3051 147.722 73.1104 146.963 70.9145C149.439 70.8524 151.599 69.9975 151.422 67.2427C151.271 64.8751 149.211 64.2321 146.988 64.4111C146.915 64.36 146.845 64.3125 146.771 64.2613C146.852 64.3015 146.933 64.3453 147.014 64.3855C146.635 64.8094 146.251 65.2295 145.872 65.6533C144.125 65.9931 143.568 64.6157 142.79 63.5562L142.794 63.5598Z" fill="#B26631"/>
<path d="M132.71 58.0795C132.883 59.0075 132.562 59.7857 131.962 60.4763C130.782 60.5238 129.599 60.5676 128.42 60.6114C128.409 60.0853 128.387 59.5556 128.383 59.0294C128.368 57.3013 127.893 55.9494 125.917 55.5074C123.842 55.047 123.982 56.9651 123.168 57.8603C123.024 57.3305 122.537 56.6729 122.187 57.199C121.325 58.5033 120.068 60.0634 122.482 61.2216C122.943 61.5175 123.4 61.8171 123.86 62.1131C122.825 63.7134 121.682 65.2004 119.773 65.869C117.525 66.1211 116.014 64.3856 114.071 63.8084C116.596 62.7269 115.265 60.9841 114.849 59.3948C116.496 59.0112 115.811 57.7726 115.822 56.7898C116.482 55.9641 119.139 56.8884 117.982 54.393C117.967 54.3565 118.796 53.8194 119.279 53.6952C124.177 52.4091 128.622 52.61 131.641 57.4547C131.833 57.7653 132.341 57.8785 132.706 58.0868L132.71 58.0795Z" fill="#B26631"/>
<path d="M121.874 39.8955C120.613 40.9405 118.896 38.5839 117.51 40.4289C117.241 40.7907 116.85 39.8992 116.74 39.395C115.977 35.8108 117.985 33.2861 121.737 32.5846C123.134 32.3216 124.439 31.3863 125.935 31.2401C127.189 31.1196 128.656 31.2767 128.187 32.9135C127.811 34.2215 128.829 36.5086 126.337 36.684C125.501 36.7425 125.069 36.8923 125.125 37.6084C125.316 40.1111 124.026 40.5093 121.866 39.8992L121.874 39.8955Z" fill="#B26631"/>
<path d="M171.241 47.1917C171.119 48.4814 173.043 49.804 171.222 50.8234C170.297 51.3422 169.752 55.774 167.912 51.4043C165.694 52.3506 165.439 49.5154 163.563 49.1537C162.122 48.876 161.938 46.2162 162.258 44.3894C162.402 43.5636 162.793 42.7854 163.047 41.9743C163.272 41.2619 163.442 40.4142 164.363 40.4033C165.259 40.3923 166.291 40.8563 166.202 41.7807C166.058 43.3408 168.69 43.2202 167.949 45.1164C167.688 45.785 168.561 45.5914 169.062 45.3576C171.285 44.3236 171.55 45.4781 171.241 47.188V47.1917Z" fill="#B26631"/>
<path d="M142.326 118.039C144.512 119.526 145.503 119.182 144.961 116.68C144.637 115.174 144.217 113.687 144.106 112.131C149.506 117.845 148.087 125.441 150.169 132.715C148.094 131.276 148.363 128.726 146.893 128.097C142.672 126.303 143.586 122.149 142.179 119.087C142.108 118.934 142.226 118.696 142.326 118.039Z" fill="#EBAF81"/>
<path d="M88.9344 99.0474C87.5522 91.1228 91.8682 85.5072 96.7113 80.1912C97.0504 81.9632 94.3893 91.4406 92.7749 94.0237C91.6802 92.9057 93.6005 91.616 92.281 90.2422C91.3485 93.3588 90.6482 96.3949 88.9344 99.0438V99.0474Z" fill="#EBAF81"/>
<path d="M143.104 50.9149C140.911 51.6273 141.357 54.152 139.956 55.4381C139.436 55.913 139.204 56.8995 138.283 56.4611C137.45 56.0628 136.609 55.4929 136.93 54.2762C137.332 52.7636 137.682 51.2401 138.054 49.7202C138.81 49.6507 139.09 49.2087 139.267 48.4962C139.967 45.6354 141.253 45.0034 143.572 46.7352C145.374 48.0797 143.354 49.5156 143.1 50.9149H143.104Z" fill="#B26631"/>
<path d="M132.835 49.7198C132.673 49.5079 132.511 49.296 132.349 49.0841C132.426 49.0293 132.504 48.9781 132.585 48.9233C132.666 49.1901 132.743 49.4604 132.824 49.7271L132.835 49.7162V49.7198Z" fill="#EBAF81"/>
<path d="M134.129 47.8018C133.978 47.5899 133.823 47.378 133.672 47.1661C134.394 47.0053 133.963 47.6009 134.107 47.8201L134.129 47.8018Z" fill="#EBAF81"/>
<path d="M90.91 104.553C90.9764 104.473 91.039 104.396 91.1054 104.316C91.0722 104.426 91.0353 104.535 91.0022 104.645L90.91 104.553Z" fill="#B26631"/>
<path d="M172.118 133.322C172.199 133.366 172.276 133.41 172.357 133.453C172.287 133.402 172.214 133.348 172.144 133.296L172.118 133.322Z" fill="#CC884C"/>
<path d="M119.777 65.8654C121.686 65.1968 122.829 63.7098 123.864 62.1095C125.383 61.6089 126.901 61.112 128.42 60.6115C129.603 60.5677 130.782 60.5202 131.962 60.4763C135.452 61.9268 138.264 65.7119 142.794 63.5636C143.568 64.6232 144.125 65.9969 145.872 65.6608C144.63 67.7397 146.074 69.2742 146.966 70.9183C147.726 73.1142 145.757 74.3052 145.076 75.9749C145.109 76.1759 145.105 76.3768 145.061 76.5741C141.574 76.797 138.438 79.2157 134.748 78.189C134.199 78.0538 133.654 77.9223 133.104 77.7871C132.146 73.9727 133.056 72.1642 136.676 71.375C138.987 70.8672 139.009 69.508 138.393 67.842C137.372 65.0762 132.434 63.9107 130.171 65.869C129.172 66.735 128.751 67.6776 129.953 68.7956C132.352 71.0279 131.925 73.4612 130.358 75.9384C129.242 75.7119 128.121 75.489 127.004 75.2625C123.3 75.1894 121.881 72.2738 120.094 69.8149C119.939 68.5033 118.664 67.283 119.769 65.869L119.777 65.8654Z" fill="#CC884C"/>
<path d="M133.108 77.7834C133.657 77.9186 134.203 78.0501 134.752 78.189C135.19 80.9146 133.62 83.1287 132.857 85.5473C132.091 85.8616 131.346 86.2635 130.55 86.4827C125.438 87.882 123.256 86.2306 123.19 80.9511C125.261 79.581 127.115 78.0648 127.008 75.2588C128.125 75.4853 129.245 75.7082 130.362 75.9347C130.093 78.2767 131.542 78.1159 133.108 77.7834Z" fill="#B8784A"/>
<path d="M132.857 85.5472C133.62 83.1285 135.19 80.9108 134.752 78.1889C138.441 79.2155 141.578 76.7968 145.065 76.574C144.95 77.0672 145.002 77.8308 144.7 78.0135C140.69 80.4285 137.903 84.7434 132.857 85.5509V85.5472Z" fill="#5F3A2B"/>
<path d="M127.008 75.2588C127.115 78.0648 125.261 79.5774 123.19 80.9511C122.095 78.7772 120.908 76.6435 119.931 74.4148C119.279 72.9242 118.417 71.28 120.097 69.8113C121.885 72.2702 123.304 75.1857 127.008 75.2588Z" fill="#5F3A2B"/>
<path d="M114.852 59.3874C115.269 60.9768 116.599 62.7195 114.075 63.801C113.422 63.6366 112.114 63.3114 112.825 62.7232C113.986 61.7623 111.653 58.865 114.852 59.3874Z" fill="#CC884C"/>
<path d="M144.132 53.9546C144.176 54.035 144.261 54.119 144.254 54.1921C144.246 54.2651 144.147 54.3309 144.088 54.4003C144.103 54.2505 144.117 54.1044 144.132 53.9546Z" fill="#CC884C"/>
<path d="M146.966 70.9147C146.074 69.2705 144.629 67.7397 145.872 65.6571C146.255 65.2333 146.635 64.8095 147.018 64.3893L146.996 64.4112C149.218 64.2322 151.275 64.8752 151.43 67.2428C151.607 69.9976 149.443 70.8489 146.97 70.9147H146.966Z" fill="#5F3A2B"/>
<path d="M147.018 64.3891C146.937 64.3489 146.856 64.3051 146.775 64.2649C146.848 64.316 146.919 64.3635 146.992 64.4147L147.014 64.3928L147.018 64.3891Z" fill="#5F3A2B"/>
<path d="M128.42 60.6114C126.901 61.1083 125.383 61.6088 123.864 62.1094C123.403 61.8134 122.946 61.5175 122.486 61.2215C122.46 60.0524 122.663 58.9271 123.168 57.8639C123.982 56.9687 123.838 55.0506 125.917 55.511C127.896 55.9494 128.368 57.3049 128.383 59.033C128.387 59.5592 128.409 60.0889 128.42 60.615V60.6114Z" fill="#5F3A2B"/>
<path d="M123.168 57.8603C122.659 58.9235 122.46 60.0488 122.486 61.2179C120.068 60.0634 121.328 58.5033 122.191 57.1953C122.537 56.6692 123.028 57.3268 123.171 57.8566L123.168 57.8603Z" fill="#B8784A"/>
<path d="M133.108 77.7834C131.542 78.1159 130.093 78.2766 130.362 75.9347C131.929 73.4575 132.36 71.0242 129.96 68.7919C128.759 67.6739 129.175 66.7312 130.178 65.8653C132.441 63.9034 137.38 65.0725 138.401 67.8383C139.016 69.5043 138.994 70.8635 136.683 71.3713C133.067 72.1642 132.153 73.969 133.112 77.7834H133.108Z" fill="#5F3A2B"/>
</svg>
