<svg width="203" height="170" viewBox="0 0 203 170" fill="none" xmlns="http://www.w3.org/2000/svg">
<rect width="202.325" height="169.868" rx="10.1162" fill="#9CA068"/>
<path fill-rule="evenodd" clip-rule="evenodd" d="M98.8729 19.0168C94.3999 19.6114 92.6315 20.0045 89.6548 21.0667C85.6448 22.4973 81.7557 24.9551 78.4095 28.173C75.5717 30.902 73.8695 33.2249 72.0909 36.7953C70.8665 39.2533 69.3112 44.5112 69.3112 46.1925C69.3112 46.5149 69.2138 46.6012 68.9404 46.5221C66.6674 45.864 60.4317 45.7327 57.2323 46.2759C50.0307 47.498 44.2135 50.4554 39.1997 55.4434C34.2106 60.4068 31.4017 66.2493 30.5204 73.4955C29.6992 80.2461 31.862 88.0545 36.2049 94.0193C38.8083 97.5947 43.8831 101.777 47.8592 103.624C48.6971 104.013 49.3848 104.403 49.3871 104.491C49.3896 104.578 48.9164 105.579 48.3356 106.715C45.1183 113.008 44.3474 120.581 46.2114 127.585C48.9681 137.944 57.6546 146.366 68.613 149.307C75.0057 151.022 81.0147 150.859 87.5303 148.794C92.1748 147.321 96.7125 144.607 100.138 141.252L101.191 140.22L102.681 141.611C107.185 145.817 112.04 148.341 118.263 149.71C123.991 150.971 129.445 150.68 135.394 148.793C141.194 146.954 145.944 143.841 149.879 139.302C153.927 134.632 156.296 129.198 157.058 122.834C157.672 117.709 156.548 111.672 154.056 106.712C153.484 105.574 153.02 104.573 153.025 104.487C153.029 104.402 153.53 104.108 154.137 103.835C158.949 101.671 164.538 96.8207 167.244 92.4599C169.315 89.1215 170.658 85.8494 171.48 82.1396C172.095 79.367 172.147 74.075 171.587 71.3724C170.566 66.446 169.149 63.1042 166.442 59.24C164.99 57.1676 162.423 54.4642 160.574 53.0602C159.778 52.4554 159.015 51.8672 158.879 51.7532C158.138 51.131 155.003 49.3886 153.44 48.7294C147.23 46.1115 141.475 45.318 135.216 46.2168C134.458 46.3258 133.671 46.4631 133.467 46.5221C133.195 46.6008 133.097 46.5151 133.097 46.1998C133.097 45.9634 132.896 44.8426 132.65 43.7091C131.355 37.7315 128.603 32.6913 124.314 28.4377C121.454 25.6018 119.045 23.932 115.296 22.1869C112.189 20.7406 109.378 19.8523 106.519 19.4135C104.425 19.0918 100.025 18.8637 98.8729 19.0168Z" fill="#FBCED0"/>
<path fill-rule="evenodd" clip-rule="evenodd" d="M120.869 71.7317C120.329 71.4577 118.817 71.1488 118.199 71.1863C117.702 71.2165 116.826 71.497 116.135 71.847C115.56 72.1387 112.774 74.0758 112.199 74.5848C111.279 75.3986 110.446 76.7202 109.946 78.1616C109.314 79.9819 109.304 82.0578 109.917 84.1395C110.24 85.2352 110.415 85.5228 111.222 86.2834C112.351 87.3464 112.903 87.6125 114.298 87.7661C115.598 87.9094 116.668 87.728 117.683 87.1922C120.178 85.8746 121.837 83.3964 122.373 80.1866C122.691 78.2814 122.873 75.4919 122.744 74.4903C122.637 73.6518 122.328 73.0031 121.756 72.4157C121.408 72.0594 121.204 71.9015 120.869 71.7317ZM110.898 62.244C110.13 61.8106 108.939 61.5083 108.088 61.5303C106.395 61.5744 104.038 62.3744 102.236 63.5171C100.89 64.3705 99.5685 65.5927 99.0209 66.4917C98.5587 67.2502 97.9706 68.7423 97.8227 69.5317C97.694 70.2184 97.627 71.3051 97.6856 71.7533C97.7781 72.46 98.4164 73.8188 99.0133 74.5794C99.6766 75.425 101.101 76.3468 102.152 76.6106C102.689 76.7455 104.07 76.7298 105.077 76.5774C106.137 76.417 106.949 76.0648 108.025 75.2995C108.819 74.734 108.988 74.5815 109.475 73.9938C110.282 73.0184 110.956 71.9262 111.917 70.0362C112.715 68.4664 112.905 67.9638 112.979 67.2248C113.047 66.5324 112.968 65.9254 112.668 64.8631C112.437 64.0436 112.228 63.5959 111.845 63.1062C111.475 62.6318 111.295 62.4682 110.898 62.244ZM93.8863 63.8096C93.64 63.6964 93.2786 63.5702 93.0831 63.5292C92.5142 63.4097 91.1125 63.2699 90.715 63.2931C89.3671 63.3716 87.7204 64.1281 86.559 65.2024C85.2004 66.4591 84.3169 67.884 83.9561 69.4002C83.5321 71.1821 83.6277 72.841 84.2687 74.825C84.5776 75.7812 84.8099 76.2062 85.4295 76.9493C86.2387 77.9197 87.0462 78.4965 87.8192 78.6563C88.2726 78.75 89.29 78.6625 89.9055 78.477C90.9631 78.1581 92.2215 77.3822 92.9801 76.5813C93.4443 76.0912 93.5353 75.9568 93.8105 75.3534C94.4095 74.0402 94.8627 72.4145 95.139 70.5871C95.2258 70.0133 95.3804 69.153 95.4826 68.6752C95.7491 67.4289 95.7702 66.421 95.5453 65.6924C95.2965 64.8867 94.661 64.1656 93.8863 63.8096ZM120.758 89.5968C120.131 89.3658 119.005 89.4163 118.092 89.7165C117.481 89.9172 116.176 90.3224 114.244 90.911C113.851 91.0309 112.113 91.8453 111.635 92.1342C111.378 92.289 111.125 92.5295 110.742 92.9832L110.208 93.6162L109.807 94.9493C109.27 96.7356 109.178 97.2551 109.252 98.0619C109.387 99.5363 110.415 101.047 111.785 101.787C112.528 102.188 113.823 102.546 114.63 102.574C117.755 102.681 119.767 101.721 121.525 99.2834C122.487 97.9485 122.887 96.9971 123.101 95.5361C123.466 93.0325 122.341 90.1796 120.758 89.5968ZM105.252 80.3988C104.38 79.7705 103.949 79.5388 103.196 79.2958C101.543 78.7618 99.9295 78.8923 96.8709 79.8074C96.2084 80.0056 95.282 80.2324 94.8122 80.3114C93.2189 80.5791 90.8005 80.504 88.5034 80.1153C86.5338 79.782 85.5858 79.8439 84.1106 80.4024C83.5998 80.5959 82.9197 80.8896 82.5993 81.0553L82.0168 81.3566L81.0829 82.466L80.149 83.5753L79.9153 84.2312C79.5937 85.1336 79.4848 85.7025 79.4772 86.5198C79.4638 87.969 79.8115 89.2645 80.5764 90.6148C81.0076 91.3763 81.2715 91.7339 81.9739 92.5086C82.9801 93.6183 83.5518 94.0246 86.1904 95.5049C86.8744 95.8886 87.6983 96.3914 88.0212 96.6222C88.8919 97.2445 90.3252 98.5425 90.9313 99.2577C91.6508 100.107 92.5841 101.521 93.0765 102.509C94.2743 104.912 96.0705 106.797 98.1494 107.832C99.8463 108.678 101.58 108.98 102.963 108.673C103.921 108.46 105.088 107.968 105.599 107.56C106.491 106.85 107.47 105.305 107.734 104.189C108.033 102.927 107.951 101.202 107.48 98.8435C107.129 97.0869 106.908 95.1845 106.944 94.2377C106.958 93.8451 107.09 92.6836 107.235 91.6565C108.022 86.0988 108.056 85.3882 107.604 83.8791C107.317 82.9187 107.186 82.6202 106.778 82.0032C106.295 81.2711 105.93 80.8875 105.252 80.3988Z" fill="#554B43"/>
</svg>
