<svg width="425" height="256" viewBox="0 0 425 256" fill="none" xmlns="http://www.w3.org/2000/svg">
<g clip-path="url(#clip0_48_106)">
<rect width="424.46" height="255.856" rx="10.1162" fill="#FEF4EB"/>
<path d="M17.2627 85.4561V77.1276L18.3524 76.972C19.6756 76.7644 20.7718 76.1936 21.641 75.2596C22.5231 74.3126 23.1977 72.8143 23.6647 70.7646C24.1447 68.7019 24.4495 65.8934 24.5793 62.3389L25.2019 45.6042H54.0789V85.4561H43.649V54.0105H35.1649L34.5422 66.542C34.3087 71.1862 33.686 74.8899 32.6742 77.653C31.6623 80.4162 30.125 82.4075 28.0624 83.6269C25.9998 84.8463 23.282 85.4561 19.9091 85.4561H17.2627ZM67.6856 85.9231C65.7786 85.9231 64.0922 85.6117 62.6263 84.989C61.1733 84.3534 60.0317 83.3934 59.2015 82.1091C58.3713 80.8248 57.9561 79.1903 57.9561 77.2055C57.9561 75.5709 58.235 74.1764 58.7929 73.0218C59.3507 71.8543 60.129 70.9008 61.1279 70.1614C62.1268 69.4219 63.2879 68.8576 64.6111 68.4684C65.9473 68.0793 67.3872 67.8263 68.9309 67.7095C70.6044 67.5798 71.9471 67.4241 72.9589 67.2425C73.9838 67.0479 74.7232 66.782 75.1773 66.4447C75.6313 66.0944 75.8583 65.6339 75.8583 65.0631V64.9853C75.8583 64.2069 75.5599 63.6102 74.9632 63.1951C74.3665 62.7799 73.6011 62.5724 72.6671 62.5724C71.6422 62.5724 70.8055 62.7994 70.1569 63.2534C69.5212 63.6945 69.1385 64.3756 69.0088 65.2966H59.1237C59.2534 63.4805 59.8307 61.807 60.8555 60.2762C61.8933 58.7325 63.4046 57.5001 65.3894 56.579C67.3742 55.645 69.852 55.178 72.8227 55.178C74.9632 55.178 76.8832 55.431 78.5826 55.9369C80.282 56.4299 81.7284 57.1239 82.9219 58.019C84.1154 58.9011 85.0235 59.9389 85.6461 61.1324C86.2818 62.3129 86.5996 63.5972 86.5996 64.9853V85.4561H76.5588V81.2529H76.3253C75.7286 82.3686 75.0021 83.2702 74.1459 83.9577C73.3027 84.6453 72.3363 85.1447 71.2466 85.4561C70.1698 85.7674 68.9828 85.9231 67.6856 85.9231ZM71.1882 79.1514C72.0055 79.1514 72.7708 78.9827 73.4843 78.6454C74.2108 78.3082 74.8011 77.8217 75.2551 77.186C75.7091 76.5504 75.9362 75.7785 75.9362 74.8704V72.3797C75.6508 72.4964 75.3459 72.6067 75.0216 72.7105C74.7102 72.8143 74.373 72.9115 74.0097 73.0024C73.6595 73.0932 73.2833 73.1775 72.8811 73.2553C72.4919 73.3332 72.0833 73.4045 71.6552 73.4694C70.8249 73.5991 70.1439 73.8131 69.612 74.1115C69.0931 74.3969 68.7039 74.7537 68.4445 75.1818C68.198 75.5969 68.0748 76.0639 68.0748 76.5828C68.0748 77.413 68.3666 78.0487 68.9504 78.4898C69.5342 78.9308 70.2801 79.1514 71.1882 79.1514ZM91.7319 85.4561V55.5672H119.597V85.4561H109.478V63.5842H101.695V85.4561H91.7319ZM125.07 85.4561V55.5672H135.811V66.2307H137.679L144.062 55.5672H156.36L146.786 70.6673L156.438 85.4561H143.984L138.224 76.1936H135.811V85.4561H125.07ZM169.062 71.757L177.39 55.5672H187.509V85.4561H177.39V69.1884L169.062 85.4561H158.943V55.5672H169.062V71.757ZM225.22 66.3863V74.4034H210.198V66.3863H225.22ZM214.012 55.5672V85.4561H203.893V55.5672H214.012ZM231.525 55.5672V85.4561H221.484V55.5672H231.525ZM244.971 85.9231C243.064 85.9231 241.377 85.6117 239.911 84.989C238.459 84.3534 237.317 83.3934 236.487 82.1091C235.656 80.8248 235.241 79.1903 235.241 77.2055C235.241 75.5709 235.52 74.1764 236.078 73.0218C236.636 71.8543 237.414 70.9008 238.413 70.1614C239.412 69.4219 240.573 68.8576 241.896 68.4684C243.232 68.0793 244.672 67.8263 246.216 67.7095C247.89 67.5798 249.232 67.4241 250.244 67.2425C251.269 67.0479 252.008 66.782 252.462 66.4447C252.916 66.0944 253.144 65.6339 253.144 65.0631V64.9853C253.144 64.2069 252.845 63.6102 252.248 63.1951C251.652 62.7799 250.886 62.5724 249.952 62.5724C248.927 62.5724 248.091 62.7994 247.442 63.2534C246.806 63.6945 246.424 64.3756 246.294 65.2966H236.409C236.539 63.4805 237.116 61.807 238.141 60.2762C239.178 58.7325 240.69 57.5001 242.675 56.579C244.659 55.645 247.137 55.178 250.108 55.178C252.248 55.178 254.168 55.431 255.868 55.9369C257.567 56.4299 259.014 57.1239 260.207 58.019C261.401 58.9011 262.309 59.9389 262.931 61.1324C263.567 62.3129 263.885 63.5972 263.885 64.9853V85.4561H253.844V81.2529H253.611C253.014 82.3686 252.287 83.2702 251.431 83.9577C250.588 84.6453 249.621 85.1447 248.532 85.4561C247.455 85.7674 246.268 85.9231 244.971 85.9231ZM248.473 79.1514C249.291 79.1514 250.056 78.9827 250.77 78.6454C251.496 78.3082 252.086 77.8217 252.54 77.186C252.994 76.5504 253.221 75.7785 253.221 74.8704V72.3797C252.936 72.4964 252.631 72.6067 252.307 72.7105C251.995 72.8143 251.658 72.9115 251.295 73.0024C250.945 73.0932 250.568 73.1775 250.166 73.2553C249.777 73.3332 249.368 73.4045 248.94 73.4694C248.11 73.5991 247.429 73.8131 246.897 74.1115C246.378 74.3969 245.989 74.7537 245.73 75.1818C245.483 75.5969 245.36 76.0639 245.36 76.5828C245.36 77.413 245.652 78.0487 246.236 78.4898C246.819 78.9308 247.565 79.1514 248.473 79.1514ZM294.333 86.0009C291.09 86.0009 288.314 85.3588 286.005 84.0745C283.696 82.7772 281.925 80.974 280.692 78.6649C279.46 76.3428 278.844 73.651 278.844 70.5895C278.844 67.5279 279.46 64.8426 280.692 62.5335C281.925 60.2114 283.696 58.4082 286.005 57.1239C288.314 55.8266 291.09 55.178 294.333 55.178C297.265 55.178 299.801 55.7099 301.942 56.7736C304.095 57.8244 305.762 59.3163 306.942 61.2492C308.123 63.1691 308.72 65.4264 308.733 68.0209H298.77C298.627 66.4512 298.173 65.2577 297.408 64.4404C296.655 63.6102 295.682 63.1951 294.489 63.1951C293.555 63.1951 292.737 63.4675 292.037 64.0123C291.336 64.5442 290.792 65.355 290.402 66.4447C290.013 67.5214 289.819 68.8771 289.819 70.5116C289.819 72.1462 290.013 73.5083 290.402 74.598C290.792 75.6747 291.336 76.4855 292.037 77.0304C292.737 77.5622 293.555 77.8282 294.489 77.8282C295.28 77.8282 295.981 77.6465 296.59 77.2833C297.2 76.9071 297.693 76.3623 298.069 75.6488C298.458 74.9223 298.692 74.0402 298.77 73.0024H308.733C308.694 75.6358 308.091 77.9319 306.923 79.8908C305.755 81.8367 304.101 83.3415 301.961 84.4053C299.834 85.469 297.291 86.0009 294.333 86.0009ZM311.365 63.5842V55.5672H340.319V63.5842H330.823V85.4561H320.705V63.5842H311.365ZM357.959 86.0009C354.716 86.0009 351.94 85.3588 349.63 84.0745C347.321 82.7772 345.551 80.974 344.318 78.6649C343.086 76.3428 342.47 73.651 342.47 70.5895C342.47 67.5279 343.086 64.8426 344.318 62.5335C345.551 60.2114 347.321 58.4082 349.63 57.1239C351.94 55.8266 354.716 55.178 357.959 55.178C361.202 55.178 363.978 55.8266 366.287 57.1239C368.596 58.4082 370.367 60.2114 371.6 62.5335C372.832 64.8426 373.448 67.5279 373.448 70.5895C373.448 73.651 372.832 76.3428 371.6 78.6649C370.367 80.974 368.596 82.7772 366.287 84.0745C363.978 85.3588 361.202 86.0009 357.959 86.0009ZM358.037 78.0617C358.945 78.0617 359.73 77.7568 360.391 77.1471C361.053 76.5374 361.565 75.6682 361.928 74.5396C362.292 73.411 362.473 72.0683 362.473 70.5116C362.473 68.9419 362.292 67.5993 361.928 66.4836C361.565 65.355 361.053 64.4858 360.391 63.8761C359.73 63.2664 358.945 62.9616 358.037 62.9616C357.077 62.9616 356.253 63.2664 355.565 63.8761C354.878 64.4858 354.352 65.355 353.989 66.4836C353.626 67.5993 353.444 68.9419 353.444 70.5116C353.444 72.0683 353.626 73.411 353.989 74.5396C354.352 75.6682 354.878 76.5374 355.565 77.1471C356.253 77.7568 357.077 78.0617 358.037 78.0617ZM376.639 85.4561L376.562 77.3612H377.496C378.079 77.3612 378.592 77.1925 379.033 76.8552C379.487 76.5179 379.87 75.999 380.181 75.2985C380.505 74.598 380.758 73.7094 380.94 72.6326C381.134 71.5559 381.258 70.2781 381.31 68.7992L381.777 55.5672H406.373V85.4561H396.254V63.5842H391.273L390.805 71.6792C390.676 74.2218 390.313 76.3752 389.716 78.1395C389.132 79.9038 388.354 81.3243 387.381 82.401C386.408 83.4648 385.279 84.2431 383.995 84.7361C382.711 85.2161 381.297 85.4561 379.753 85.4561H376.639Z" fill="#836F59"/>
<path d="M75.9987 207.116C68.2878 211.628 48.5916 219.706 40.4233 223.918C13.5842 237.755 16.7395 258.543 0.408653 260.392C-23.7848 263.132 -54.6382 220.219 -48.4075 208.95C-47.6888 207.65 -47.098 207.896 -37.589 201.991C-29.7383 197.115 -25.8135 194.678 -22.5278 191.846C-15.9871 186.206 -17.594 184.954 -9.94941 177.729C-4.56282 172.638 -2.76205 172.314 2.91622 166.898C8.33817 161.729 7.26928 161.231 12.5274 156.178C17.7694 151.14 19.4396 150.843 24.4039 145.507C27.082 142.628 28.993 140.545 30.8337 137.176C33.2214 132.806 32.5051 131.739 34.7848 127.79C36.6669 124.53 39.4252 119.754 43.8329 119.244C47.7346 118.792 49.3447 122.098 53.0346 121.085C56.1554 120.228 56.0493 117.576 58.9735 117.207C62.3166 116.786 64.1099 120.043 66.5479 119.103C68.1679 118.478 67.7158 116.907 69.9403 114.805C71.9585 112.897 75.0097 111.664 76.0232 112.571C77.1192 113.551 74.9305 116.214 76.1006 117.764C77.2517 119.289 80.2711 117.905 86.5034 117.536C88.5108 117.417 92.5595 117.199 97.4735 118.049C102.401 118.9 102.689 119.873 106.038 119.784C109.35 119.698 111.041 118.695 112.832 119.932C114.053 120.775 115.056 122.474 114.841 123.93C114.574 125.734 112.614 125.961 112.609 127.534C112.603 129.042 114.399 130.261 115.018 130.682C117.103 132.097 118.603 130.545 120.862 131.798C121.792 132.314 123.205 133.457 123.14 134.604C123.066 135.909 121.148 136.014 120.6 137.678C120.169 138.987 120.924 140.241 121.368 141.296C122.355 143.645 121.983 146.002 121.238 150.716C120.336 156.434 119.732 160.251 117.777 163.337C117.467 163.827 116.56 165.185 117.074 166.196C117.63 167.29 119.366 167.018 119.62 167.78C119.983 168.87 116.523 169.703 114.793 172.804C113.65 174.853 114.643 175.417 113.585 179.071C112.778 181.859 112.138 181.746 110.513 185.807C108.998 189.592 109.536 189.739 108.456 191.547C107.512 193.129 105.931 194.426 102.81 196.954C100.206 199.063 98.9039 200.117 97.19 200.942C95.4096 201.8 93.9263 202.135 91.0303 202.772C85.9902 203.881 84.7775 203.513 81.5069 204.564C78.7649 205.446 76.9458 206.562 76.001 207.115L75.9987 207.116Z" fill="#CFA075"/>
<path d="M114.577 144.028C116.475 146.137 115.092 150.231 114.262 152.692C111.919 159.632 106.315 162.98 103.124 164.887C99.4975 167.054 96.6363 168.762 92.9969 167.895C92.5692 167.793 88.2242 166.686 86.5324 162.792C84.9718 159.198 86.7654 155.758 87.4524 154.439C88.0936 153.211 89.892 150.259 97.4341 146.943C102.644 144.652 111.598 140.716 114.577 144.026L114.577 144.028Z" fill="url(#paint0_radial_48_106)"/>
<path d="M100.475 127.031C101.578 130.014 99.0259 133.216 96.2109 136.745C94.3609 139.064 91.3656 142.717 85.9959 144.416C83.4236 145.229 80.0447 146.299 76.61 144.571C73.1041 142.808 71.6727 139.208 71.1653 137.934C70.5277 136.331 70.7613 135.33 71.5423 133C72.0512 131.479 72.0149 128.924 77.3339 126.407C83.2679 123.598 86.2345 122.193 89.086 122.179C92.4571 122.16 99.0539 123.181 100.476 127.03L100.475 127.031Z" fill="url(#paint1_radial_48_106)"/>
<path d="M63.2044 123.732C64.2929 125.507 62.3649 129.355 57.1354 137.743C53.2594 143.961 52.0008 145.531 49.3848 146.245C46.5546 147.019 42.4171 146.511 40.0879 143.652C37.2887 140.216 38.8238 135.501 39.1947 134.365C40.3848 130.71 43.0204 128.884 48.2924 125.233C54.7965 120.73 58.0683 120.623 59.0213 120.623C60.764 120.621 62.0556 121.859 63.2044 123.732Z" fill="url(#paint2_radial_48_106)"/>
<path d="M96.5035 180.596C92.6399 179.952 89.6931 181.309 88.9298 181.686C87.9304 182.182 84.542 183.926 83.1282 187.959C83.014 188.287 81.0429 194.123 83.8815 196.586C86.0256 198.447 89.56 197.208 92.6633 196.12C94.5668 195.452 98.7721 193.908 101.253 189.669C102.142 188.15 103.515 185.8 102.547 183.717C101.482 181.425 98.245 180.886 96.5026 180.595L96.5035 180.596Z" fill="url(#paint3_radial_48_106)"/>
<path d="M69.1021 158.393C72.1624 160.302 75.3692 166.257 75.118 169.836C74.8897 173.103 72.5235 173.349 70.5733 178.229C69.3356 181.326 69.9903 181.972 68.9571 187.105C67.7824 192.935 67.1146 196.253 64.6485 199.152C64.0437 199.863 58.9567 205.657 52.6185 203.973C48.7445 202.945 45.1851 199.332 44.3828 195.601C43.6733 192.299 45.3901 190.134 43.5836 187.391C42.456 185.68 40.6893 184.852 40.4671 184.751C38.9161 184.046 37.7649 184.221 36.7024 184.131C33.2715 183.841 30.6782 180.791 28.7959 178.576C26.9427 176.397 26.4792 174.527 26.6496 169.826C26.8324 164.769 29.2246 162.074 30.6868 160.85C32.3644 159.444 34.5745 157.945 38.1038 158.368C42.2033 158.861 46.0374 157.777 50.681 157.493C52.6695 157.372 53.9511 156.648 61.1488 155.822C66.824 155.17 69.1041 158.393 69.1041 158.393L69.1021 158.393Z" fill="url(#paint4_radial_48_106)"/>
<path d="M367.842 129.161C377.276 133.782 398.017 147.6 407.458 152.827C438.478 170.003 456.67 154.875 469.143 169.168C487.622 190.342 465.971 244.485 450.921 245.209C449.184 245.293 449.038 244.592 437.071 239.094C427.191 234.554 422.251 232.284 417.345 230.848C407.576 227.988 407.407 230.233 395.371 227.261C386.891 225.167 385.399 223.662 376.412 221.483C367.832 219.402 368.046 220.699 359.686 218.704C351.352 216.715 349.972 215.316 341.529 213.763C336.974 212.926 333.696 212.345 329.211 212.582C323.392 212.89 322.82 214.188 317.483 214.351C313.078 214.486 306.622 214.682 303.245 210.831C300.255 207.422 302.423 203.973 299.026 201.091C296.152 198.654 293.637 200.305 291.366 197.768C288.772 194.867 290.773 191.274 288.265 189.528C286.597 188.369 285.362 189.713 281.86 188.848C278.683 188.064 275.487 185.913 275.708 184.428C275.947 182.823 279.972 183.326 280.718 181.318C281.451 179.343 278.13 177.309 273.698 171.658C272.27 169.838 269.412 166.154 267.029 161.031C264.639 155.894 265.398 155.054 263.123 151.953C260.875 148.886 258.793 147.879 258.828 145.47C258.851 143.828 259.851 141.89 261.41 141.241C263.343 140.437 264.845 142.149 266.38 141.235C267.853 140.358 267.867 137.955 267.874 137.126C267.89 134.335 265.398 133.831 265.142 130.971C265.037 129.794 265.228 127.795 266.388 127.185C267.708 126.493 269.063 128.236 271.042 127.779C272.599 127.419 273.328 125.976 274.066 124.94C275.709 122.637 278.249 121.609 283.328 119.554C289.49 117.059 293.603 115.396 297.887 115.431C298.567 115.436 300.483 115.496 301.132 114.421C301.834 113.258 300.436 111.783 301.011 111.098C301.836 110.119 304.909 112.889 309.061 112.705C311.804 112.582 311.705 111.317 315.956 110.176C319.199 109.306 319.508 109.975 324.527 109.13C329.204 108.342 328.996 107.75 331.463 107.709C333.621 107.672 335.918 108.402 340.42 109.863C344.177 111.081 346.055 111.69 347.978 112.822C349.978 113.996 351.274 115.196 353.786 117.55C358.16 121.647 358.595 123.003 361.756 125.468C364.406 127.534 366.683 128.593 367.839 129.16L367.842 129.161Z" fill="#554B43"/>
<path d="M278.396 128.546C279.211 125.526 284.104 124.432 287.044 123.772C295.337 121.917 302.26 125.233 306.203 127.122C310.682 129.268 314.216 130.961 315.748 134.895C315.928 135.358 317.687 140.096 314.997 143.968C312.514 147.541 307.99 147.866 306.257 147.991C304.641 148.106 300.59 148.141 292.433 142.98C286.798 139.416 277.114 133.29 278.394 128.547L278.396 128.546Z" fill="url(#paint5_radial_48_106)"/>
<path d="M271.058 151.754C273.245 148.97 278.031 149.499 283.308 150.084C286.777 150.468 292.292 151.15 297.455 155.211C299.927 157.156 303.175 159.712 303.735 163.956C304.307 168.288 301.734 171.742 300.824 172.966C299.678 174.504 298.551 174.87 295.77 175.498C293.955 175.91 291.489 177.439 285.563 173.904C278.951 169.962 275.644 167.991 273.768 165.316C271.548 162.153 268.234 155.345 271.056 151.753L271.058 151.754Z" fill="url(#paint6_radial_48_106)"/>
<path d="M292.202 188.772C293.221 186.708 298.23 186.271 309.819 186.285C318.409 186.296 320.762 186.561 323.166 188.606C325.769 190.818 327.976 195.01 326.711 198.876C325.191 203.523 319.594 204.837 318.244 205.153C313.905 206.171 310.405 204.759 303.404 201.932C294.768 198.444 292.527 195.427 291.905 194.529C290.765 192.89 291.128 190.949 292.202 188.772Z" fill="url(#paint7_radial_48_106)"/>
<path d="M325.831 124.186C327.728 128.2 330.974 130.18 331.84 130.677C332.976 131.328 336.888 133.498 341.742 132.468C342.136 132.384 349.11 130.824 349.657 126.71C350.07 123.603 346.553 121.001 343.467 118.716C341.573 117.315 337.322 114.259 331.571 114.405C329.51 114.456 326.324 114.539 324.926 116.67C323.388 119.014 324.977 122.377 325.831 124.187L325.831 124.186Z" fill="url(#paint8_radial_48_106)"/>
<path d="M322.12 162.966C321.981 158.968 325.689 152.465 329.34 150.608C332.672 148.911 334.457 150.994 340.485 149.974C344.311 149.327 344.512 148.333 350.188 146.302C356.635 143.997 360.304 142.684 364.738 143.309C365.826 143.462 374.792 144.86 377.291 151.811C378.819 156.059 377.623 161.523 374.512 164.461C371.758 167.061 368.528 166.712 367.035 170.017C366.104 172.08 366.451 174.227 366.498 174.496C366.824 176.368 367.746 177.349 368.352 178.402C370.31 181.801 369.032 186.026 368.103 189.094C367.19 192.113 365.671 193.643 360.979 196.234C355.933 199.021 351.745 198.346 349.598 197.686C347.133 196.93 344.229 195.726 342.337 192.157C340.14 188.01 336.58 185.035 333.271 180.831C331.855 179.03 330.313 178.247 324.808 171.956C320.467 166.996 322.119 162.963 322.119 162.963L322.12 162.966Z" fill="url(#paint9_radial_48_106)"/>
<path d="M172.122 230.079C174.369 237.162 182.088 253.1 184.794 260.248C193.687 283.734 179.761 294.975 188.948 305.161C202.557 320.252 246.582 310.507 249.147 300.021C249.443 298.812 248.931 298.639 246.357 289.692C244.231 282.304 243.169 278.611 242.734 275.025C241.87 267.885 243.598 267.992 242.952 259.251C242.497 253.091 241.553 251.893 241.102 245.37C240.669 239.142 241.626 239.423 241.23 233.358C240.835 227.312 239.957 226.203 239.908 220.124C239.882 216.845 239.88 214.487 240.66 211.364C241.673 207.314 242.736 207.043 243.575 203.316C244.267 200.239 245.28 195.73 242.807 192.973C240.618 190.533 237.708 191.708 235.974 189.035C234.508 186.774 236.098 185.176 234.475 183.328C232.619 181.216 229.622 182.259 228.632 180.324C227.974 179.038 229.161 178.306 228.972 175.763C228.802 173.455 227.596 170.997 226.439 171.003C225.188 171.01 225.031 173.884 223.406 174.205C221.807 174.521 220.707 171.987 217.008 168.309C215.816 167.125 213.401 164.75 209.828 162.563C206.247 160.37 205.507 160.818 203.456 158.911C201.427 157.026 200.941 155.464 199.106 155.246C197.857 155.098 196.25 155.604 195.548 156.633C194.679 157.908 195.779 159.133 194.878 160.119C194.015 161.064 192.188 160.832 191.557 160.753C189.435 160.484 189.386 158.685 187.248 158.218C186.368 158.027 184.824 157.959 184.206 158.712C183.503 159.568 184.646 160.694 184.034 162.036C183.552 163.093 182.358 163.458 181.472 163.872C179.503 164.794 178.382 166.472 176.14 169.828C173.421 173.9 171.607 176.618 171.06 179.627C170.973 180.104 170.761 181.454 169.858 181.801C168.881 182.177 167.947 181.048 167.35 181.383C166.496 181.863 168.189 184.297 167.493 187.191C167.032 189.103 166.085 188.906 164.649 191.774C163.554 193.961 164.02 194.245 162.706 197.681C161.482 200.882 161.06 200.677 160.698 202.404C160.382 203.914 160.629 205.598 161.135 208.904C161.557 211.661 161.769 213.04 162.371 214.503C162.995 216.023 163.733 217.053 165.185 219.052C167.711 222.532 168.683 222.973 170.132 225.439C171.346 227.505 171.846 229.209 172.122 230.077L172.122 230.079Z" fill="#C3BAB1"/>
<path d="M183.826 168.026C181.423 168.294 179.939 171.617 179.045 173.613C176.528 179.244 178.121 184.435 179.028 187.391C180.058 190.75 180.872 193.399 183.655 194.87C183.982 195.043 187.345 196.754 190.644 195.257C193.689 193.875 194.54 190.734 194.867 189.53C195.17 188.408 195.738 185.57 192.91 179.327C190.957 175.015 187.599 167.605 183.827 168.025L183.826 168.026Z" fill="url(#paint10_radial_48_106)"/>
<path d="M202.443 165.208C200.037 166.462 199.799 169.873 199.537 173.634C199.365 176.107 199.146 180.045 201.54 184.076C202.687 186.006 204.193 188.543 207.341 189.363C210.555 190.2 213.522 188.743 214.572 188.228C215.894 187.579 216.322 186.825 217.171 184.937C217.726 183.705 219.217 182.129 217.325 177.615C215.215 172.579 214.161 170.061 212.379 168.475C210.274 166.599 205.548 163.589 202.443 165.207L202.443 165.208Z" fill="url(#paint11_radial_48_106)"/>
<path d="M227.73 183.759C226.027 184.266 225.026 187.736 223.487 195.868C222.347 201.896 222.235 203.573 223.466 205.466C224.797 207.514 227.686 209.485 230.791 208.987C234.522 208.388 236.268 204.594 236.689 203.679C238.042 200.737 237.437 198.139 236.226 192.943C234.732 186.533 232.74 184.657 232.142 184.13C231.049 183.165 229.527 183.224 227.73 183.759Z" fill="url(#paint12_radial_48_106)"/>
<path d="M174.157 200.865C176.952 202.599 178.021 205.077 178.284 205.735C178.626 206.597 179.75 209.56 178.32 212.862C178.203 213.13 176.087 217.865 172.889 217.835C170.474 217.811 168.969 215.082 167.646 212.687C166.835 211.217 165.083 207.927 165.962 203.906C166.277 202.466 166.766 200.239 168.571 199.472C170.556 198.63 172.898 200.083 174.158 200.865L174.157 200.865Z" fill="url(#paint13_radial_48_106)"/>
<path d="M204.113 202.149C201.095 201.65 195.66 203.596 193.762 205.971C192.027 208.138 193.371 209.6 191.79 213.728C190.787 216.347 190.005 216.388 187.704 220.166C185.091 224.458 183.604 226.9 183.485 230.074C183.456 230.853 183.319 237.286 188.265 239.739C191.287 241.239 195.597 240.95 198.244 239.063C200.587 237.392 200.753 235.091 203.464 234.376C205.155 233.931 206.739 234.391 206.937 234.45C208.315 234.868 208.937 235.613 209.656 236.145C211.975 237.861 215.355 237.39 217.81 237.047C220.225 236.711 221.59 235.799 224.185 232.768C226.976 229.508 227.024 226.501 226.809 224.928C226.565 223.122 226.039 220.963 223.581 219.276C220.725 217.317 218.942 214.519 216.191 211.774C215.012 210.599 214.624 209.438 210.582 204.941C207.395 201.396 204.111 202.149 204.111 202.149L204.113 202.149Z" fill="url(#paint14_radial_48_106)"/>
</g>
<defs>
<radialGradient id="paint0_radial_48_106" cx="0" cy="0" r="1" gradientTransform="matrix(-5.78884 -7.56428 -13.558 10.1823 101.378 154.662)" gradientUnits="userSpaceOnUse">
<stop offset="0.0288462" stop-color="#836F59"/>
<stop offset="1" stop-color="#514942"/>
</radialGradient>
<radialGradient id="paint1_radial_48_106" cx="0" cy="0" r="1" gradientTransform="matrix(-6.37496 -8.33009 -12.2994 9.23697 85.745 132.763)" gradientUnits="userSpaceOnUse">
<stop offset="0.0288462" stop-color="#836F59"/>
<stop offset="1" stop-color="#514942"/>
</radialGradient>
<radialGradient id="paint2_radial_48_106" cx="0" cy="0" r="1" gradientTransform="matrix(-5.48979 -7.17349 -12.2097 9.16963 51.7493 133.771)" gradientUnits="userSpaceOnUse">
<stop offset="0.0288462" stop-color="#836F59"/>
<stop offset="1" stop-color="#514942"/>
</radialGradient>
<radialGradient id="paint3_radial_48_106" cx="0" cy="0" r="1" gradientTransform="matrix(-4.56229 -5.96151 -9.11808 6.84778 91.9604 188.506)" gradientUnits="userSpaceOnUse">
<stop offset="0.0288462" stop-color="#836F59"/>
<stop offset="1" stop-color="#514942"/>
</radialGradient>
<radialGradient id="paint4_radial_48_106" cx="0" cy="0" r="1" gradientTransform="matrix(-15.631 -20.4248 -17.9245 13.4614 54.3955 175.172)" gradientUnits="userSpaceOnUse">
<stop offset="0.0288462" stop-color="#836F59"/>
<stop offset="1" stop-color="#514942"/>
</radialGradient>
<radialGradient id="paint5_radial_48_106" cx="0" cy="0" r="1" gradientTransform="matrix(-3.5904 9.87714 18.7772 6.80521 297.379 134.749)" gradientUnits="userSpaceOnUse">
<stop offset="0.389423" stop-color="#CABAA8"/>
<stop offset="1" stop-color="#846E56"/>
</radialGradient>
<radialGradient id="paint6_radial_48_106" cx="0" cy="0" r="1" gradientTransform="matrix(-3.95368 10.8763 17.0332 6.17305 286.264 162.266)" gradientUnits="userSpaceOnUse">
<stop offset="0.389423" stop-color="#CABAA8"/>
<stop offset="1" stop-color="#846E56"/>
</radialGradient>
<radialGradient id="paint7_radial_48_106" cx="0" cy="0" r="1" gradientTransform="matrix(-3.40487 9.3667 16.9096 6.12831 309.467 193.681)" gradientUnits="userSpaceOnUse">
<stop offset="0.389423" stop-color="#CABAA8"/>
<stop offset="1" stop-color="#846E56"/>
</radialGradient>
<radialGradient id="paint8_radial_48_106" cx="0" cy="0" r="1" gradientTransform="matrix(-2.82952 7.78385 12.6276 4.57641 336.507 123.833)" gradientUnits="userSpaceOnUse">
<stop offset="0.389423" stop-color="#CABAA8"/>
<stop offset="1" stop-color="#846E56"/>
</radialGradient>
<radialGradient id="paint9_radial_48_106" cx="0" cy="0" r="1" gradientTransform="matrix(-9.69259 26.6633 24.8196 8.99479 348.07 166.99)" gradientUnits="userSpaceOnUse">
<stop offset="0.389423" stop-color="#CABAA8"/>
<stop offset="1" stop-color="#846E56"/>
</radialGradient>
<radialGradient id="paint10_radial_48_106" cx="0" cy="0" r="1" gradientTransform="matrix(2.65755 13.8587 -7.98001 1.52421 185.999 181.969)" gradientUnits="userSpaceOnUse">
<stop offset="0.0817308" stop-color="#2F2922"/>
<stop offset="0.889423" stop-color="#95826E"/>
</radialGradient>
<radialGradient id="paint11_radial_48_106" cx="0" cy="0" r="1" gradientTransform="matrix(2.41085 12.572 -8.78786 1.67849 208.394 176.935)" gradientUnits="userSpaceOnUse">
<stop offset="0.0817308" stop-color="#2F2922"/>
<stop offset="0.889423" stop-color="#95826E"/>
</radialGradient>
<radialGradient id="paint12_radial_48_106" cx="0" cy="0" r="1" gradientTransform="matrix(2.39326 12.4804 -7.56774 1.44546 229.15 196.365)" gradientUnits="userSpaceOnUse">
<stop offset="0.0817308" stop-color="#2F2922"/>
<stop offset="0.889423" stop-color="#95826E"/>
</radialGradient>
<radialGradient id="paint13_radial_48_106" cx="0" cy="0" r="1" gradientTransform="matrix(1.78727 9.32022 -6.28912 1.20123 172.462 208.319)" gradientUnits="userSpaceOnUse">
<stop offset="0.0817308" stop-color="#2F2922"/>
<stop offset="0.889423" stop-color="#95826E"/>
</radialGradient>
<radialGradient id="paint14_radial_48_106" cx="0" cy="0" r="1" gradientTransform="matrix(3.51343 18.3216 -21.5468 4.11544 203.7 220.764)" gradientUnits="userSpaceOnUse">
<stop offset="0.0817308" stop-color="#2F2922"/>
<stop offset="0.889423" stop-color="#95826E"/>
</radialGradient>
<clipPath id="clip0_48_106">
<rect width="424.46" height="255.856" rx="10.1162" fill="white"/>
</clipPath>
</defs>
</svg>
