<svg width="199" height="284" viewBox="0 0 199 284" fill="none" xmlns="http://www.w3.org/2000/svg">
<rect width="198.531" height="283.676" rx="16.8604" fill="#FEF4EB"/>
<g clip-path="url(#clip0_48_6)">
<path d="M121.498 245.747C120.931 242.691 120.949 239.833 122.746 237.03C127.766 229.2 127.605 225.996 122.233 218.228C121.408 217.216 121.408 217.216 120.4 215.881C120.4 215.881 120.418 215.819 120.412 215.825C120.334 214.125 119.349 212.844 118.573 211.445C112.944 201.287 112.335 190.888 116.669 179.997C120.287 170.904 125.45 163.117 132.53 156.488C137.741 151.609 140.887 145.806 139.204 137.865C138.106 132.672 138.267 127.202 137.867 121.855C138.016 121.177 138.034 120.425 138.338 119.828C144.027 108.671 143.735 105.991 135.867 97.6934C136.804 94.5701 138.44 92.5556 141.992 93.5967C144.624 95.334 147.555 93.9417 150.307 94.4407C159.435 100.219 167.959 106.718 173.929 116.261C169.762 105.733 163.052 97.7488 153.197 92.8082C154.289 91.4899 155.381 90.1654 156.474 88.847C157.065 89.8697 158.074 90.1962 159.1 90.381C172.263 92.7712 179.427 102.221 184.835 113.68C186.423 117.043 187.742 120.542 189.187 123.98C189.426 115.275 186.357 107.87 181.427 101.106C176.191 93.9232 168.317 90.9169 160.963 87.0667C162.342 85.3726 164.306 84.658 166.15 83.7401C166.365 85.2494 167.297 85.7422 168.688 85.8346C175.159 86.2843 180.603 89.2351 185.468 93.4427C188.148 95.759 190.733 98.1985 193.36 100.583C188.465 89.6972 179.367 84.8797 168.807 82.1691C169.816 77.1792 173.577 76.4708 177.594 76.1627C182.865 78.6331 188.13 81.1034 193.401 83.5737C190.93 77.6166 185.199 76.7911 180.752 74.0251C184.853 70.4582 189.593 71.5732 194.052 72.5527C198.171 73.4583 201.854 73.9758 206.069 72.2755C217.978 67.4704 226.92 79.1444 227.458 91.3605C222.754 90.5596 221.422 83.5491 214.772 84.2945C218.969 89.6602 223.697 93.0977 228.335 96.6276C235.719 103.989 238.507 113.415 239.098 123.561C239.641 132.956 239.558 142.202 243.438 151.234C246.656 158.718 245.862 166.973 242.954 174.754C240.614 181.019 239.994 187.481 243.05 193.451C247.36 201.854 245.474 210.004 243.396 218.32C239.594 220.754 235.624 220.742 231.457 219.392C228.001 218.271 224.467 217.421 220.969 216.448C223.04 205.063 216.486 198.188 208.91 191.812C205.066 188.572 202.439 184.278 200.422 179.744C198.308 174.982 196.428 175.894 193.974 179.233C190.417 184.069 186.799 188.861 183.211 193.673C179.534 196.075 176.149 198.767 174.514 203.166C167.315 205.186 161.464 210.386 154.128 212.222C151.836 212.795 152.874 216.947 152.874 217.261C152.874 221.382 152.755 222.275 152.689 224.684C151.603 230.413 149.675 235.989 149.621 241.903C149.603 243.775 148.928 245.359 148.29 247.003C139.109 252.369 130.166 252.301 121.51 245.759L121.498 245.747ZM198.714 86.4691C198.511 85.9948 198.434 85.4465 198.123 85.1754C197.455 84.5902 196.338 83.1918 195.974 85.0399C195.724 86.3089 197.091 87.0605 198.714 86.4753V86.4691Z" fill="#8E8E8E"/>
<path d="M135.873 97.681C143.741 105.979 144.033 108.659 138.344 119.815C138.04 120.413 138.022 121.164 137.873 121.842C132.399 126.142 129.504 132.53 125.516 138.038C114.043 153.901 98.9157 161.953 79.4909 161.515C69.2472 161.281 59.7377 158.49 50.3655 154.689C50.3416 154.104 50.2342 153.661 49.5895 154.252L50.2879 154.77C58.1677 166.012 64.776 178.007 70.7395 190.438C72.5602 194.239 73.9631 197.837 73.2706 202.075C71.3126 210.226 71.4439 218.462 72.5244 226.699C72.7513 228.43 73.4318 230.093 73.1035 231.892C71.3962 232.348 69.671 232.477 67.9936 231.836C61.9942 229.563 55.9112 227.672 49.4582 227.438C47.2076 215.172 41.9545 203.542 42.0738 190.777C42.1395 183.89 41.2023 177.366 38.0384 171.082C35.8297 166.696 36.3729 161.509 37.2505 156.809C38.7667 148.714 37.9728 141.826 31.4839 136.011C28.5469 133.381 26.7142 129.456 24.3205 126.167C21.8073 122.711 21.2641 119.051 23.0191 115.09C26.8515 110.753 31.0422 106.903 36.6714 105.234C38.522 104.685 39.489 101.008 41.5664 102.813C43.226 104.254 40.671 106.589 40.6591 108.671C40.6591 109.312 40.1158 109.946 39.8233 110.581C37.9668 110.957 36.1043 111.653 34.2538 111.628C31.066 111.591 28.6424 112.916 27.6932 115.842C26.6904 118.928 28.6603 121.183 30.869 123.173C34.0986 126.087 38.3548 126.703 41.9903 128.699C42.0261 129.105 42.0619 129.512 42.0977 129.918C39.3159 129.327 36.5282 128.742 33.2628 128.052C38.7011 136.338 44.0319 143.915 52.5384 148.283C56.741 153.34 62.4837 154.757 68.5308 155.466C69.9098 155.601 71.3186 155.607 72.6677 155.897C85.6932 158.7 97.3577 155.459 108.055 147.63C114.699 142.763 118.669 135.457 123.874 129.284C127.402 125.101 131.808 121.232 131.671 114.862C134.566 114.801 135.449 112.546 135.551 110.297C135.658 107.87 133.449 108.764 132.094 108.554C125.182 105.689 119.797 101.303 116.657 93.9785C114.192 88.2247 109.512 84.5962 103.584 82.8344C102.993 81.7378 102.294 81.5468 101.459 82.5818C100.48 82.4586 99.4948 82.3354 98.5098 82.2121C98.086 78.9964 95.6265 78.1216 93.1432 77.2777C93.1313 76.9758 93.173 76.6801 93.2685 76.3906C94.7848 74.8936 93.2029 73.9942 92.7313 72.7682C91.3404 69.1213 87.0304 68.2465 85.6932 64.618C88.4273 64.4394 91.1613 64.2607 93.9192 64.0759C91.0598 57.7553 96.0265 54.0098 98.4203 49.4203C107.273 49.1246 113.762 53.5293 118.4 60.7985C123.027 68.0494 122.555 72.337 117.117 79.1073C115.451 81.1834 115.457 82.9699 116.466 85.4217C120.143 94.3666 126.704 98.1368 135.873 97.6625V97.681ZM105.62 68.6161C106.163 68.9919 106.7 69.3677 107.243 69.7435L107.548 69.6387L107.822 69.8112C107.906 72.3616 109.374 74.0311 111.643 73.7231C114.395 73.3473 116.269 71.2158 116.639 68.2896C117.009 65.3696 116.878 62.4619 113.093 61.8458C110.353 58.513 107.19 58.3467 104.097 61.4516C102.712 62.8438 101.417 64.501 101.972 66.6078C102.432 68.3389 103.876 69.0535 105.679 68.6408L105.62 68.6161Z" fill="#6B6B6B"/>
<path d="M73.2707 202.082C73.9631 197.837 72.5603 194.239 70.7396 190.445C64.776 178.013 58.1677 166.019 50.288 154.776L50.3656 154.696C59.7377 158.491 69.2532 161.287 79.4909 161.521C98.9158 161.959 114.043 153.907 125.516 138.044C129.498 132.537 132.393 126.148 137.873 121.848C138.273 127.196 138.112 132.672 139.21 137.865C140.894 145.806 137.742 151.609 132.536 156.488C125.462 163.117 120.299 170.904 116.675 179.997C112.341 190.882 112.95 201.287 118.579 211.445C119.355 212.844 120.34 214.131 120.418 215.826C118.645 217.44 116.872 217.797 114.329 217.335C103.984 215.437 93.6566 213.786 84.171 208.618C80.4401 206.585 78.4045 201.564 73.2766 202.088L73.2707 202.082Z" fill="#E4E3E3"/>
<path d="M98.4201 49.4326C96.0264 54.0221 91.0597 57.7738 93.9191 64.0882C91.1612 64.2669 88.4271 64.4455 85.6931 64.6304C84.338 64.5441 82.9829 64.464 81.6278 64.3778C77.1029 62.6529 72.578 63.1703 68.865 65.998C59.5883 73.064 51.8041 81.744 44.9152 91.268C44.5093 90.7567 44.1034 90.2392 43.6974 89.7279C44.1034 88.0584 44.5153 86.3889 44.9212 84.7195C46.9449 82.1875 48.7178 79.8589 44.0138 78.097C42.0498 77.3578 40.9156 75.3618 41.0052 72.9716C41.6499 72.9716 42.2946 72.9592 42.9393 72.9531C45.1659 75.14 47.6851 76.292 50.2102 73.7909C52.413 71.6101 52.0787 69.0042 50.1624 66.6263C50.1744 66.0288 50.1863 65.4312 50.2042 64.8337C51.3146 65.6591 52.8189 66.2505 53.4457 67.3656C54.9022 69.9591 56.12 69.6203 58.2989 68.1356C64.4356 63.9712 64.549 63.8973 59.9644 57.3611C58.5317 55.3158 56.8543 53.5354 54.6993 52.291C54.4963 49.9747 55.4574 48.1512 56.9438 46.5249C58.2094 45.1388 60.1256 44.1408 59.7197 41.7259C63.0745 37.8202 67.4144 37.9681 71.7244 38.9907C74.5599 39.6622 77.1746 39.9209 79.7833 38.4301C84.5828 35.6887 89.3823 36.5943 94.1818 38.4363C93.9728 42.767 98.5455 45.1326 98.4201 49.4265V49.4326ZM73.6227 60.1887C76.2135 60.2195 79.1982 61.0388 80.0459 58.9073C80.9294 56.6896 78.667 54.823 77.2343 52.7777C75.8792 55.5561 74.7509 57.8724 73.6227 60.1825V60.1887Z" fill="#E4E3E3"/>
<path d="M43.7034 89.728C44.1093 90.2393 44.5153 90.7567 44.9212 91.2681C44.6466 92.0997 44.1392 92.9375 44.1452 93.763C44.1571 95.0259 41.9424 96.5968 43.9899 97.3854C45.8106 98.0876 45.7689 95.7713 46.3419 94.607C48.7118 89.7403 52.1503 86.4937 57.5945 85.3725C60.5793 84.7627 63.3491 83.0316 66.2145 81.8057C67.1219 82.3047 68.0352 82.8037 68.9426 83.3088L70.035 84.8859C69.3485 88.7361 66.3817 91.188 64.5371 94.3236C60.0301 102.006 60.3226 106.386 66.519 112.749C68.3934 114.678 69.3843 116.655 69.0679 119.329C68.9486 119.495 68.9008 119.686 68.9307 119.889C68.5128 120.314 68.0889 120.739 67.6711 121.165C67.4442 121.115 67.2353 121.152 67.0443 121.282C65.2176 121.848 63.4148 122.489 61.5702 122.976C49.5118 126.142 40.8559 121.195 39.8292 110.575C40.1217 109.94 40.6589 109.306 40.6649 108.665C40.6769 106.583 43.2318 104.248 41.5723 102.807C39.4889 101.002 38.5278 104.679 36.6773 105.228C31.048 106.897 26.8634 110.747 23.0249 115.084C20.082 116.612 18.8284 115.75 19.3716 112.337C22.6787 110.889 23.795 106.423 27.3767 105.646C36.0923 103.761 40.85 97.8351 43.7153 89.7095L43.7034 89.728Z" fill="#E6D6C3"/>
<path d="M121.498 245.747C130.16 252.289 139.103 252.357 148.278 246.991C150.791 253.823 151.274 260.267 146.015 266.279C142.798 269.957 137.545 268.879 134.237 272.458C133.133 273.653 133.026 270.345 131.712 269.877C131.02 264.992 132.793 260.285 133.169 255.474C129.139 259.688 129.45 264.782 129.653 269.852C121.612 272.637 118.806 272.212 116.024 267.789C115.786 264.333 117.475 261.363 118.275 258.166C120.131 257.833 120.299 256.392 120.311 254.852C120.537 254.47 120.776 254.1 120.985 253.706C120.997 253.681 120.77 253.521 120.651 253.422C120.472 253.841 120.293 254.26 120.114 254.685C118.209 254.907 118.138 256.423 117.976 257.883C114.06 260.033 113.995 263.895 113.863 267.733C112.681 267.967 111.488 268.146 110.324 268.442C107.53 269.156 106.825 268.238 106.837 265.183C106.873 256.176 110.598 250.373 119.266 248.328C120.722 247.983 121.218 247.034 121.487 245.747H121.498Z" fill="#E4E3E3"/>
<path d="M98.4202 49.4328C98.5456 45.139 93.9729 42.7734 94.1819 38.4426C95.5549 38.4611 96.9279 38.4857 98.3068 38.5042C98.8083 39.3544 99.5783 39.5885 100.486 39.5084C101.745 39.533 103.005 39.5515 104.27 39.5761C104.587 41.3688 106.037 42.1697 107.291 43.0629C118.185 50.8066 127.032 60.3429 132.178 73.1319C132.685 74.3886 133.348 75.3127 134.828 75.1587C133.139 78.5161 134.333 80.9433 137.186 82.8038C141.061 85.3295 143.001 88.7609 142.004 93.5907C138.446 92.5496 136.81 94.5578 135.879 97.6873C126.71 98.1617 120.149 94.3915 116.472 85.4466C115.463 82.9886 115.451 81.2082 117.123 79.1322C122.561 72.3619 123.033 68.0681 118.406 60.8234C113.768 53.5541 107.273 49.1494 98.4262 49.4451L98.4202 49.4328ZM127.546 82.8654C127.271 83.235 127.002 83.6046 126.728 83.9681C129.808 86.3152 132.894 88.6623 135.975 91.0033C134.53 86.4569 131.038 84.6581 127.546 82.8592V82.8654Z" fill="#E6D6C3"/>
<path d="M43.7034 89.7281C40.844 97.8536 36.0803 103.78 27.3648 105.665C23.7831 106.441 22.6668 110.908 19.3596 112.355C19.4492 110.723 19.5387 109.084 19.6283 107.452C20.0044 106.669 19.9745 105.918 19.485 105.191C18.512 99.6833 19.2104 94.6872 23.3234 90.5412C24.8098 89.0443 25.6754 87.0668 25.3889 84.7751C27.2096 80.7831 27.4663 76.3476 29.1437 72.2263C33.7582 60.8727 42.3483 52.9134 50.252 44.3196C51.6548 43.6851 53.0577 43.0506 54.4665 42.4161C55.6066 42.5947 56.711 42.6317 57.6064 41.6953C58.3108 41.7015 59.0152 41.7138 59.7256 41.72C60.1315 44.1348 58.2153 45.139 56.9498 46.5189C55.4634 48.1453 54.5023 49.9687 54.7052 52.2851C45.5241 55.9135 38.295 61.7783 35.7162 71.9368C33.8775 79.1814 36.9519 86.5185 44.9271 84.7073C44.5212 86.3768 44.1093 88.0463 43.7034 89.7157V89.7281ZM30.5048 93.4305C31.1554 93.3073 31.8837 93.258 32.0151 92.4017C32.0389 92.2415 31.6211 91.8164 31.4599 91.8472C30.6361 91.9889 30.5645 92.722 30.4809 93.4058C30.1287 93.757 29.7824 94.1143 29.4302 94.4654C25.95 95.525 23.9741 98.0385 23.0787 101.593C25.5978 99.6094 28.6065 98.1124 29.478 94.5085C29.8242 94.1512 30.1645 93.7878 30.5107 93.4305H30.5048Z" fill="#6B6B6B"/>
<path d="M49.4582 227.444C55.9112 227.678 61.9942 229.569 67.9936 231.843C69.671 232.477 71.3962 232.348 73.1035 231.898C75.8614 236.753 74.4824 242.457 70.1724 244.071C70.3814 241.903 69.4083 240.744 67.3309 240.51C66.4594 240.412 66.0535 240.911 66.0355 241.693C65.9759 243.855 67.1101 244.934 69.1337 245.143C68.6442 248.186 65.8445 247.632 64.1611 247.964C57.5469 249.283 51.0878 252.308 44.0975 250.521C40.8441 244.897 45.4228 241.299 47.7927 237.091C41.0053 239.777 39.2503 245.051 39.9009 251.636C36.5162 250.151 33.7822 247.41 30.0632 246.474C29.108 246.233 29.6214 244.484 30.3915 243.714C35.1014 239.013 38.2295 232.064 46.2824 232.101C49.1418 232.114 49.2433 229.613 49.4582 227.438V227.444Z" fill="#E4E3E3"/>
<path d="M50.2461 44.3196C42.3425 52.9134 33.7523 60.8727 29.1379 72.2263C27.4664 76.3476 27.2097 80.7831 25.383 84.7751C21.7894 81.9166 19.5627 77.8076 16.4944 74.4687C25.6934 72.8116 27.2813 70.908 28.4931 60.1457C28.8334 59.3449 29.1737 58.544 29.508 57.7493C35.6745 57.3058 35.3104 52.3282 35.8834 47.9974C37.6743 44.9665 36.5878 42.0095 35.6566 39.0463L35.2387 39.0217L35.191 38.5966C33.5255 35.732 33.8896 31.7524 30.6362 29.7626C30.087 28.4627 29.0244 27.7604 27.8365 27.206C19.9567 17.7929 14.3573 16.1789 5.20003 20.6698C4.06582 15.4704 6.85956 13.382 11.2531 13.0617C18.142 12.5565 24.2011 15.2794 29.5677 19.3392C38.325 25.9616 45.0646 34.4876 50.2461 44.3196Z" fill="#8E8E8E"/>
<path d="M134.828 75.1587C133.348 75.3127 132.685 74.3886 132.178 73.1319C127.032 60.3429 118.185 50.8065 107.291 43.0629C106.037 42.1696 104.587 41.375 104.27 39.5761C108.688 29.818 113.786 20.5343 121.487 13.0309C126.388 8.23808 131.885 4.68352 138.828 4.25229C144.421 3.90731 146.248 5.83552 146.517 12.0575C143.383 9.58105 140.07 7.83149 136.04 9.71042C128.16 13.382 122.257 18.9818 119.672 27.7666C118.048 31.9249 115.23 36.0092 118.914 40.5063C119.636 45.4408 119.934 50.6895 126.459 51.324C126.841 52.3713 127.259 53.3878 128.56 53.5048C128.62 61.9569 134.017 64.9693 140.947 66.417C138.906 69.3309 136.87 72.2448 134.828 75.1587Z" fill="#8E8E8E"/>
<path d="M119.672 27.7665C122.263 18.9817 128.16 13.3819 136.046 9.7103C140.076 7.83753 143.383 9.58709 146.523 12.0574C148.493 17.072 148.499 22.1975 146.594 27.1196C144.63 32.1897 144.027 37.389 144.016 42.7424C141.669 42.9334 139.61 41.0914 137.204 41.7321C137.031 36.8469 135.587 31.9556 138.5 27.2059C139.873 24.9635 138.858 22.4192 136.87 20.4972C134.673 18.3657 131.957 18.1008 129.671 19.4376C126.005 21.5753 122.221 23.9224 121.122 28.709C120.645 28.3948 120.167 28.0807 119.684 27.7726L119.672 27.7665Z" fill="#2D3030"/>
<path d="M5.19998 20.6695C14.3572 16.1786 19.9567 17.7926 27.8484 27.2119C27.6812 27.3967 27.526 27.5877 27.3768 27.7786C26.6425 27.8156 25.9023 27.8526 25.1681 27.8895C23.3653 27.5322 21.7535 26.5158 19.7597 26.7807C15.187 27.3782 12.1545 32.1279 14.6497 36.0213C17.1211 39.8777 17.3241 43.9128 17.5987 48.1203C16.1839 50.6461 13.4678 51.0773 11.2531 52.3156C10.4412 46.6788 9.06823 41.2884 6.34613 36.1999C3.73147 31.3394 3.74341 25.9921 5.19998 20.6695Z" fill="#2D3030"/>
<path d="M11.2472 52.3097C13.4619 51.0715 16.178 50.6403 17.5928 48.1145C19.6941 49.7285 18.4524 53.8745 22.0401 54.3612C21.8789 59.0369 24.7503 60.115 28.4991 60.1458C27.2873 70.908 25.6994 72.8116 16.5004 74.4688C12.4112 72.9903 11.3725 69.2817 11.092 65.5731C10.7577 61.1807 11.1636 56.7329 11.2412 52.3159L11.2472 52.3097Z" fill="#6B6B6B"/>
<path d="M137.192 41.7323C139.598 41.0977 141.664 42.9397 144.004 42.7426C144.499 48.1576 146.785 53.3631 145.466 59.0061C144.744 62.0801 143.645 64.7106 140.941 66.4047C134.011 64.957 128.62 61.9446 128.554 53.4925C130.483 51.361 134.99 51.1885 133.557 46.5004C136.41 46.2294 135.115 42.6132 137.186 41.7199L137.192 41.7323Z" fill="#6B6B6B"/>
<path d="M160.963 87.0604C168.317 90.9106 176.185 93.9169 181.427 101.1C186.357 107.864 189.42 115.263 189.187 123.974C187.742 120.536 186.423 117.037 184.835 113.673C179.433 102.215 172.263 92.7649 159.1 90.3747C158.074 90.1899 157.065 89.8695 156.474 88.8407C157.686 87.4854 159.244 87.0542 160.969 87.0604H160.963Z" fill="#6B6B6B"/>
<path d="M168.807 82.1628C179.367 84.8734 188.471 89.6909 193.36 100.576C190.733 98.1922 188.154 95.7527 185.468 93.4364C180.597 89.2288 175.159 86.278 168.688 85.8283C167.291 85.7297 166.365 85.2431 166.151 83.7337C167.034 83.2101 167.923 82.6865 168.807 82.169V82.1628Z" fill="#6B6B6B"/>
<path d="M153.197 92.7959C163.052 97.7366 169.762 105.72 173.929 116.249C167.959 106.706 159.435 100.207 150.307 94.4284C151.268 93.8863 152.23 93.338 153.191 92.7959H153.197Z" fill="#6B6B6B"/>
<path d="M184.734 200.732C181.319 201.521 178.108 203.19 174.508 203.153C176.144 198.761 179.528 196.069 183.206 193.66C184.728 195.785 185.528 198.071 184.734 200.726V200.732Z" fill="#6B6B6B"/>
<path d="M180.746 74.0189C185.193 76.7849 190.93 77.6165 193.395 83.5675C188.124 81.0972 182.859 78.6268 177.588 76.1565C178.263 74.8567 179.391 74.253 180.746 74.0127V74.0189Z" fill="#6B6B6B"/>
<path d="M39.9069 251.636C39.2562 245.051 41.0113 239.777 47.7986 237.091C45.4287 241.293 40.8501 244.89 44.1035 250.521C42.7066 250.891 41.3097 251.266 39.9069 251.636Z" fill="#E4E3E3"/>
<path d="M129.659 269.852C129.456 264.782 129.145 259.688 133.175 255.474C132.799 260.285 131.026 264.998 131.718 269.877C131.032 269.871 130.345 269.858 129.659 269.852Z" fill="#E4E3E3"/>
<path d="M113.869 267.727C114.001 263.895 114.066 260.033 117.982 257.883L118.275 258.172C117.469 261.363 115.78 264.339 116.024 267.795C115.308 267.776 114.586 267.758 113.869 267.733V267.727Z" fill="#E4E3E3"/>
<path d="M69.1336 245.143C67.11 244.94 65.9758 243.855 66.0354 241.693C66.0534 240.911 66.4593 240.412 67.3308 240.51C69.4082 240.744 70.3813 241.902 70.1723 244.071C69.8261 244.428 69.4799 244.786 69.1336 245.143Z" fill="#E4E3E3"/>
<path d="M19.4851 105.19C19.9806 105.911 20.0044 106.669 19.6283 107.451C18.1121 106.798 17.8972 106.059 19.4851 105.19Z" fill="#E6D6C3"/>
<path d="M131.665 114.881C131.802 121.245 127.396 125.119 123.868 129.302C118.663 135.475 114.693 142.781 108.049 147.648C97.3517 155.478 85.6872 158.718 72.6617 155.915C71.3126 155.626 69.9037 155.62 68.5248 155.484C68.6024 153.574 70.1186 154 71.1932 153.778C74.9002 153.014 78.673 151.375 80.0997 147.993C83.4904 139.954 89.2689 135.839 97.3039 134.416C105.518 133.208 112.878 129.598 120.119 125.692C121.486 125.286 122.662 124.688 122.818 122.156C115.803 123.555 109.47 121.146 103.064 119.138C95.7518 116.84 94.2475 112.374 99.2141 106.706C101.441 104.162 101.387 102.123 99.6619 99.6092C95.9966 94.2558 92.3552 88.8839 88.7018 83.5182C89.4599 82.1629 90.2121 80.8138 90.9702 79.4585C93.555 80.1731 95.4235 82.9391 98.5038 82.2307C99.4828 82.3539 100.468 82.4771 101.447 82.6065C102.05 83.5921 102.766 83.6291 103.566 82.859C109.494 84.6209 114.174 88.2494 116.639 94.0032C119.779 101.328 125.164 105.708 132.082 108.579C131.945 110.679 131.802 112.786 131.659 114.887L131.665 114.881Z" fill="#E6D6C3"/>
<path d="M97.3038 134.409C89.2688 135.832 83.4843 139.947 80.0996 147.987C78.6729 151.375 74.9002 153.008 71.1931 153.771C70.1126 153.993 68.6023 153.568 68.5247 155.478C62.4835 154.769 56.7408 153.353 52.5323 148.289C51.1653 143.545 51.6309 138.826 52.7234 134.12C55.3619 131.754 58.0004 129.382 60.6389 127.017C61.8567 124.017 66.0056 124.503 67.0383 121.294C67.2293 121.164 67.4442 121.127 67.6711 121.177C68.4292 121.103 68.8471 120.678 68.9306 119.901C68.9008 119.692 68.9426 119.507 69.0679 119.335C69.9693 119.304 70.8767 119.267 71.7781 119.236C79.2281 122.212 86.1229 119.347 93.0654 117.062C95.8234 119.704 100.599 118.743 102.593 122.735C102.975 127.657 99.7513 130.849 97.3038 134.409Z" fill="#C97E82"/>
<path d="M90.9703 79.4522C90.2121 80.8075 89.46 82.1566 88.7018 83.5119C82.5293 90.8551 78.8103 92.0626 73.8437 88.2739C72.5005 87.2451 71.2947 86.0254 70.0232 84.8919C69.659 84.3682 69.2949 83.8384 68.9307 83.3086C70.9246 80.3886 74.8227 79.8342 76.6195 76.5691C77.8731 74.2836 77.2523 72.9345 75.2286 71.8256C73.6646 70.9632 71.5394 70.7291 71.5633 72.7743C71.6409 79.637 67.2115 77.2899 63.8328 77.2406C67.3608 70.9816 70.5664 64.3038 79.4013 65.3818C80.0938 65.4681 80.8817 64.7288 81.6279 64.3777C82.983 64.4639 84.3381 64.544 85.6932 64.6303C87.0304 68.2587 91.3404 69.1335 92.7313 72.7805C93.1969 74.0064 94.7848 74.9058 93.2685 76.4028C92.1642 74.6348 90.6718 74.4315 88.7914 74.9428C87.293 75.3494 86.0872 74.8134 85.8424 72.9468C85.5798 70.9262 84.6366 69.5155 82.4458 70.0268C81.1325 70.3348 79.7774 70.9816 79.6281 72.7127C79.4491 74.7641 80.5773 76.0886 82.195 76.9203C85.0365 78.3865 88.1109 78.5959 91.2329 78.4481C91.1374 78.7807 91.0479 79.1134 90.9762 79.4522H90.9703Z" fill="#4B3D2E"/>
<path d="M67.0384 121.288C66.0057 124.497 61.8568 124.011 60.6391 127.011C54.4188 127.541 48.4791 131.385 41.9843 128.705C38.3488 126.715 34.0985 126.093 30.863 123.179C28.6603 121.189 26.6903 118.935 27.6873 115.848C28.6364 112.916 31.0541 111.591 34.2478 111.634C36.0983 111.659 37.9608 110.957 39.8173 110.587C40.8501 121.208 49.4999 126.155 61.5584 122.988C63.403 122.501 65.2117 121.861 67.0324 121.294L67.0384 121.288Z" fill="#8E8E8E"/>
<path d="M52.7235 134.12C51.6311 138.826 51.1654 143.545 52.5325 148.289C44.0259 143.921 38.701 136.344 33.2568 128.058C36.5222 128.748 39.304 129.339 42.0858 129.924C45.6317 131.323 49.1716 132.715 52.7175 134.114L52.7235 134.12Z" fill="#E6D6C3"/>
<path d="M91.227 78.4483C88.1109 78.5961 85.0306 78.3866 82.1891 76.9205C80.5713 76.0888 79.4431 74.7643 79.6222 72.7129C79.7774 70.9757 81.1265 70.335 82.4398 70.027C84.6306 69.5157 85.5738 70.9264 85.8365 72.947C86.0812 74.8136 87.2811 75.3496 88.7854 74.943C90.6658 74.4317 92.1582 74.635 93.2626 76.403C93.1671 76.6925 93.1253 76.9882 93.1372 77.2901C92.4985 77.6782 91.8597 78.0601 91.221 78.4483H91.227Z" fill="#2D3030"/>
<path d="M113.093 61.8335C116.878 62.4557 117.009 65.3696 116.639 68.2896C116.269 71.2096 114.395 73.3473 111.643 73.7231C109.374 74.0311 107.906 72.3616 107.816 69.8112C113.165 70.033 113.72 69.3307 112.114 64.7104C111.864 63.9896 112.258 63.0286 112.353 62.1846C112.675 62.2401 112.92 62.1292 113.093 61.8397V61.8335Z" fill="#E6D6C3"/>
<path d="M52.7235 134.12C49.1776 132.722 45.6316 131.329 42.0917 129.931C42.0559 129.524 42.0201 129.118 41.9902 128.711C48.4851 131.391 54.4248 127.541 60.645 127.011C58.0065 129.383 55.362 131.748 52.7235 134.12Z" fill="#4B3D2E"/>
<path d="M112.353 62.1785C112.258 63.0287 111.864 63.9835 112.114 64.7043C113.72 69.3246 113.165 70.0269 107.816 69.8051L107.542 69.6326L107.237 69.7374C106.694 69.3616 106.157 68.9858 105.614 68.61L105.673 68.6346C104.903 61.6857 105.888 60.7308 112.347 62.1724L112.353 62.1785Z" fill="#4B3D2E"/>
<path d="M112.353 62.1786C105.894 60.7309 104.903 61.692 105.679 68.6409C103.876 69.0537 102.432 68.3391 101.972 66.608C101.417 64.5011 102.706 62.8501 104.097 61.4517C107.189 58.3469 110.353 58.5132 113.093 61.8398C112.92 62.117 112.675 62.2341 112.353 62.1786Z" fill="#D8B190"/>
<path d="M91.2269 78.4482C91.8657 78.0601 92.5044 77.6781 93.1431 77.29C95.6265 78.134 98.0799 79.0088 98.5098 82.2245C95.4354 82.933 93.561 80.1669 90.9762 79.4523C91.0478 79.1135 91.1314 78.7809 91.2329 78.4482H91.2269Z" fill="#8E8E8E"/>
<path d="M131.665 114.881C131.808 112.774 131.945 110.673 132.088 108.573C133.443 108.782 135.658 107.889 135.545 110.316C135.443 112.565 134.56 114.819 131.665 114.881Z" fill="#4B3D2E"/>
<path d="M103.572 82.853C102.766 83.623 102.056 83.5799 101.453 82.6004C102.288 81.5716 102.981 81.7626 103.572 82.853Z" fill="#8E8E8E"/>
<path d="M50.2879 154.77L49.5895 154.252C50.2402 153.661 50.3416 154.104 50.3655 154.69L50.2879 154.77Z" fill="#E4E3E3"/>
<path d="M44.9273 84.7196C36.952 86.5308 33.8777 79.1937 35.7163 71.9491C38.2952 61.7906 45.5243 55.9258 54.7054 52.2974C56.8604 53.5418 58.5379 55.3221 59.9705 57.3674C64.5551 63.9036 64.4417 63.9775 58.305 68.1419C56.1262 69.6204 54.9084 69.9654 53.4518 67.3719C52.825 66.2569 51.3147 65.6655 50.2104 64.84C47.6196 64.033 44.79 62.5298 44.02 67.0762L44.1035 67.0208C40.295 67.4705 40.7248 70.2611 41.0173 72.9779C40.9277 75.3743 42.062 77.3703 44.0259 78.1033C48.7299 79.8714 46.951 82.1939 44.9333 84.7258L44.9273 84.7196Z" fill="#2D3030"/>
<path d="M81.6279 64.3778C80.8817 64.7289 80.0997 65.4682 79.4012 65.3819C70.5663 64.3039 67.3607 70.9818 63.8327 77.2407C63.5879 79.3353 66.3697 79.7603 66.2086 81.8056C63.3432 83.0315 60.5733 84.7626 57.5886 85.3725C52.1443 86.4875 48.7059 89.7402 46.336 94.6069C45.7689 95.7774 45.8047 98.0876 43.984 97.3853C41.9364 96.5968 44.1452 95.0259 44.1392 93.763C44.1332 92.9313 44.6406 92.0997 44.9152 91.268C51.8041 81.744 59.5884 73.064 68.865 65.998C72.5781 63.1704 77.103 62.6529 81.6279 64.3778Z" fill="#6B6B6B"/>
<path d="M44.0975 67.0144L44.014 67.0699C46.0018 66.0411 48.0912 66.4046 50.1626 66.6263C52.0788 69.0043 52.4131 71.6101 50.2103 73.7909C47.6852 76.292 45.1601 75.14 42.9395 72.9531C43.8946 71.0926 45.0646 69.2753 44.0916 67.0144H44.0975Z" fill="#4B3D2E"/>
<path d="M73.6228 60.1888C74.751 57.8724 75.8793 55.5623 77.2344 52.7839C78.6671 54.8292 80.9295 56.6958 80.046 58.9136C79.1983 61.0451 76.2136 60.2257 73.6228 60.1949V60.1888Z" fill="#E6D6C3"/>
<path d="M44.0975 67.0144C45.0706 69.2753 43.9005 71.0926 42.9454 72.953C42.3007 72.953 41.656 72.9654 41.0113 72.9715C40.7188 70.2548 40.289 67.4703 44.0975 67.0144Z" fill="#E6D6C3"/>
<path d="M50.1625 66.6203C48.0851 66.4046 46.0018 66.0412 44.0139 67.0638C44.784 62.5174 47.6135 64.0206 50.2043 64.8276C50.1924 65.4251 50.1804 66.0227 50.1625 66.6141V66.6203Z" fill="#8E8E8E"/>
<path d="M70.0291 84.8858C71.3006 86.0193 72.5005 87.2452 73.8496 88.2679C78.8163 92.0627 82.5293 90.8491 88.7078 83.5059C92.3612 88.8716 96.0026 94.2435 99.6679 99.5907C101.387 102.104 101.447 104.143 99.2201 106.687C94.2595 112.355 95.7578 116.821 103.071 119.119C109.476 121.128 115.809 123.542 122.824 122.138C122.663 124.676 121.492 125.267 120.125 125.674C114.281 124.688 108.437 123.709 102.593 122.723C100.593 118.731 95.8235 119.686 93.0656 117.049C87.8183 111.856 81.61 107.34 80.9414 98.7159C81.1981 103.17 79.455 106.835 77.3955 110.353C75.6286 113.378 73.6586 116.273 71.7782 119.224C70.8768 119.255 69.9694 119.286 69.068 119.323C69.3844 116.649 68.3995 114.671 66.5191 112.743C60.3227 106.373 60.0302 101.993 64.5372 94.3174C66.3818 91.1817 69.3486 88.7299 70.0351 84.8796L70.0291 84.8858ZM93.8655 97.1635C92.188 95.4386 90.8449 92.3953 87.7766 91.8101C86.2484 91.5206 84.5232 93.5473 85.0903 94.995C86.3618 98.26 90.033 98.297 92.7074 99.6215C93.5193 100.022 94.0386 98.8145 93.8655 97.1635ZM66.3997 102.831C68.692 100.78 70.4828 99.1779 72.2737 97.5762C73.6825 96.3072 73.772 94.5638 72.7871 93.3009C71.3484 91.4466 70.0232 93.0483 68.9785 94.1326C66.8533 96.3318 65.3431 98.8145 66.4056 102.831H66.3997Z" fill="#8E8E8E"/>
<path d="M66.2086 81.8057C66.3697 79.7542 63.5939 79.3353 63.8327 77.2408C67.2114 77.2901 71.6468 79.6372 71.5632 72.7745C71.5394 70.7292 73.6645 70.9633 75.2285 71.8258C77.2522 72.9408 77.873 74.2838 76.6194 76.5693C74.8286 79.8343 70.9305 80.3888 68.9307 83.3088C68.0233 82.8098 67.11 82.3108 66.2026 81.8118L66.2086 81.8057Z" fill="#2D3030"/>
<path d="M68.9247 119.896C68.8412 120.672 68.4293 121.103 67.6652 121.171C68.083 120.746 68.5009 120.321 68.9247 119.896Z" fill="#8E8E8E"/>
<path d="M120.317 254.852C120.305 256.392 120.137 257.827 118.281 258.166L117.988 257.883C118.144 256.423 118.221 254.907 120.12 254.686L120.317 254.858V254.852Z" fill="#E4E3E3"/>
<path d="M120.12 254.685C120.299 254.267 120.478 253.848 120.657 253.423C120.776 253.521 121.003 253.681 120.991 253.706C120.782 254.1 120.549 254.476 120.317 254.852L120.12 254.679V254.685Z" fill="#E4E3E3"/>
<path d="M127.54 82.8655C131.032 84.6643 134.524 86.4632 135.969 91.0095C132.888 88.6624 129.802 86.3153 126.722 83.9744C126.996 83.6047 127.265 83.2351 127.54 82.8716V82.8655Z" fill="#8E8E8E"/>
<path d="M29.4721 94.5085C28.6065 98.1061 25.5919 99.6093 23.0728 101.593C23.9742 98.0384 25.9441 95.5249 29.4243 94.4653L29.4661 94.5085H29.4721Z" fill="#4B3D2E"/>
<path d="M30.475 93.4056C30.5585 92.7157 30.6302 91.9887 31.454 91.847C31.6152 91.8162 32.033 92.2413 32.0091 92.4015C31.8778 93.2578 31.1495 93.3071 30.4989 93.4303L30.475 93.4056Z" fill="#4B3D2E"/>
<path d="M30.5048 93.4302C30.1586 93.7875 29.8183 94.1509 29.4721 94.5082L29.4303 94.4651C29.7825 94.114 30.1287 93.7567 30.4809 93.4055L30.5048 93.4302Z" fill="#4B3D2E"/>
<path d="M22.0401 54.3611C18.4524 53.8745 19.694 49.7285 17.5928 48.1145C17.3182 43.9069 17.1152 39.8718 14.6438 36.0154C12.1486 32.122 15.1811 27.3724 19.7537 26.7748C21.7476 26.5161 23.3593 27.5264 25.1621 27.8837C25.8247 28.3211 26.4874 28.7523 27.15 29.1897C27.7231 29.7688 28.2961 30.3478 28.8752 30.9269C31.3227 33.1878 31.269 37.6418 35.2029 38.5966L35.2506 39.0217L35.6685 39.0463C32.7613 42.1081 36.6356 44.9911 35.8953 47.9974C35.3223 52.3282 35.6924 57.3058 29.5199 57.7494C28.0096 54.3242 25.8904 52.3097 22.046 54.3611H22.0401Z" fill="#D8B190"/>
<path d="M22.04 54.3611C25.8904 52.3097 28.0036 54.3242 29.5139 57.7494C29.1736 58.5441 28.8334 59.3449 28.4991 60.1458C24.7502 60.115 21.8789 59.0369 22.04 54.3611Z" fill="#4B3D2E"/>
<path d="M35.197 38.6028C31.263 37.6418 31.3168 33.194 28.8693 30.9331C29.4602 30.545 30.0512 30.1569 30.6422 29.7688C33.8956 31.7586 33.5315 35.7382 35.197 38.6028Z" fill="#4B3D2E"/>
<path d="M35.8893 47.9975C36.6355 44.9912 32.7553 42.1143 35.6625 39.0464C36.5877 42.0034 37.6802 44.9604 35.8893 47.9975Z" fill="#6B6B6B"/>
<path d="M30.6421 29.7687C30.0511 30.1568 29.4601 30.5449 28.8691 30.933C28.2961 30.354 27.723 29.7749 27.1499 29.1958C27.2215 28.7215 27.2932 28.2533 27.3708 27.7789C27.52 27.5879 27.6752 27.397 27.8424 27.2122C29.0363 27.7666 30.0989 28.4689 30.6421 29.7687Z" fill="#2D3030"/>
<path d="M137.192 41.7322C135.115 42.6254 136.41 46.2416 133.563 46.5126C129.396 45.299 126.889 46.679 126.459 51.3239C119.94 50.6894 119.636 45.4407 118.914 40.5062C118.752 36.3972 120.615 32.6887 121.104 28.709C122.209 23.9224 125.988 21.5753 129.653 19.4376C131.945 18.1008 134.655 18.3657 136.852 20.4972C138.834 22.4193 139.855 24.9635 138.482 27.2059C135.569 31.9556 137.013 36.8469 137.186 41.7322H137.192Z" fill="#D8B190"/>
<path d="M126.459 51.324C126.889 46.679 129.396 45.293 133.563 46.5127C134.996 51.2008 130.489 51.3733 128.561 53.5048C127.265 53.3877 126.847 52.3774 126.459 51.324Z" fill="#4B3D2E"/>
<path d="M121.11 28.7091C120.621 32.6888 118.758 36.3973 118.92 40.5063C115.236 36.0092 118.054 31.9249 119.678 27.7666C120.149 28.0808 120.633 28.395 121.11 28.7091Z" fill="#6B6B6B"/>
<path d="M27.3708 27.7788C27.2992 28.2532 27.2276 28.7214 27.15 29.1957C26.4873 28.7583 25.8247 28.3271 25.1621 27.8897C25.8964 27.8527 26.6366 27.8158 27.3708 27.7788Z" fill="#4B3D2E"/>
<path d="M102.593 122.736C108.437 123.721 114.281 124.701 120.125 125.686C112.878 129.598 105.524 133.202 97.304 134.41C99.7515 130.849 102.975 127.664 102.593 122.736Z" fill="#4B3D2E"/>
<path d="M71.7722 119.236C73.6526 116.285 75.6226 113.384 77.3895 110.365C79.449 106.854 81.1862 103.182 80.9354 98.7283C81.61 107.353 87.8183 111.868 93.0596 117.062C86.111 119.347 79.2222 122.212 71.7662 119.236H71.7722Z" fill="#836F59"/>
<path d="M93.8655 97.1635C94.0386 98.8145 93.5193 100.022 92.7074 99.6215C90.0331 98.2909 86.3618 98.2601 85.0903 94.9951C84.5232 93.5474 86.2544 91.5206 87.7766 91.8101C90.8449 92.3954 92.1881 95.4386 93.8655 97.1635Z" fill="#6B6B6B"/>
<path d="M66.3996 102.831C65.337 98.8147 66.8533 96.3321 68.9725 94.1328C70.0231 93.0486 71.3483 91.4469 72.781 93.3011C73.766 94.5702 73.6765 96.3136 72.2677 97.5765C70.4828 99.1843 68.6919 100.78 66.3936 102.831H66.3996Z" fill="#6B6B6B"/>
</g>
<defs>
<clipPath id="clip0_48_6">
<rect width="190.101" height="268.502" fill="white" transform="translate(4.21509 4.21509)"/>
</clipPath>
</defs>
</svg>
