<svg width="199" height="140" viewBox="0 0 199 140" fill="none" xmlns="http://www.w3.org/2000/svg">
<rect width="198.531" height="139.941" rx="16.8604" fill="white"/>
<path fill-rule="evenodd" clip-rule="evenodd" d="M97.2962 13.5302C93.4489 14.041 91.9279 14.3786 89.3675 15.291C85.9184 16.5199 82.5734 18.6311 79.6952 21.3951C77.2545 23.7393 75.7903 25.7346 74.2605 28.8014C73.2073 30.9128 71.8697 35.4292 71.8697 36.8735C71.8697 37.1503 71.7858 37.2245 71.5507 37.1566C69.5957 36.5912 64.2322 36.4785 61.4803 36.945C55.2861 37.9948 50.2826 40.5352 45.9701 44.8197C41.679 49.0831 39.263 54.1017 38.5049 60.326C37.7986 66.1246 39.6589 72.8318 43.3943 77.9555C45.6335 81.0266 49.9985 84.6194 53.4184 86.2057C54.1391 86.54 54.7305 86.8751 54.7325 86.9501C54.7347 87.0253 54.3277 87.8851 53.8281 88.8607C51.0609 94.2659 50.3978 100.772 52.0011 106.788C54.3722 115.685 61.8436 122.92 71.2691 125.446C76.7676 126.919 81.936 126.779 87.5403 125.005C91.5351 123.741 95.438 121.409 98.3842 118.527L99.2901 117.641L100.571 118.836C104.446 122.448 108.622 124.616 113.974 125.793C118.901 126.876 123.592 126.625 128.708 125.005C133.697 123.425 137.783 120.751 141.167 116.852C144.649 112.841 146.687 108.173 147.342 102.706C147.87 98.3038 146.903 93.1183 144.76 88.8578C144.268 87.8804 143.869 87.0206 143.873 86.9472C143.877 86.8737 144.308 86.6217 144.83 86.387C148.969 84.5284 153.776 80.3617 156.103 76.616C157.885 73.7484 159.04 70.9377 159.747 67.751C160.276 65.3694 160.321 60.8238 159.839 58.5023C158.961 54.2707 157.742 51.4001 155.414 48.0809C154.165 46.3008 151.957 43.9786 150.367 42.7726C149.682 42.2531 149.026 41.7479 148.909 41.6499C148.271 41.1155 145.575 39.6188 144.231 39.0526C138.889 36.8038 133.939 36.1222 128.555 36.8943C127.904 36.9879 127.227 37.1059 127.052 37.1566C126.818 37.2241 126.733 37.1505 126.733 36.8797C126.733 36.6767 126.56 35.7139 126.348 34.7402C125.234 29.6056 122.868 25.2762 119.179 21.6225C116.719 19.1865 114.647 17.7522 111.422 16.2533C108.749 15.0109 106.332 14.2478 103.873 13.8709C102.072 13.5946 98.2874 13.3987 97.2962 13.5302Z" fill="#FBCED0"/>
<path fill-rule="evenodd" clip-rule="evenodd" d="M116.216 58.8107C115.751 58.5754 114.45 58.31 113.919 58.3423C113.492 58.3682 112.738 58.6092 112.144 58.9098C111.649 59.1603 109.253 60.8243 108.758 61.2615C107.967 61.9605 107.251 63.0957 106.82 64.3339C106.277 65.8974 106.268 67.6806 106.795 69.4687C107.073 70.4099 107.224 70.657 107.918 71.3103C108.889 72.2233 109.363 72.4519 110.563 72.5839C111.682 72.707 112.602 72.5511 113.475 72.0909C115.622 70.9591 117.049 68.8304 117.509 66.0733C117.782 64.4368 117.939 62.0406 117.829 61.1803C117.736 60.46 117.47 59.9029 116.978 59.3983C116.679 59.0922 116.503 58.9566 116.216 58.8107ZM107.639 50.6611C106.978 50.2887 105.955 50.0291 105.222 50.048C103.766 50.0859 101.739 50.773 100.189 51.7546C99.0309 52.4876 97.8946 53.5375 97.4235 54.3097C97.026 54.9613 96.5201 56.2429 96.3929 56.921C96.2822 57.5108 96.2246 58.4443 96.275 58.8293C96.3546 59.4363 96.9036 60.6035 97.4169 61.2569C97.9875 61.9832 99.2126 62.775 100.116 63.0016C100.578 63.1175 101.766 63.104 102.633 62.9731C103.544 62.8353 104.243 62.5327 105.168 61.8754C105.851 61.3896 105.997 61.2587 106.415 60.7538C107.109 59.916 107.689 58.9778 108.516 57.3543C109.202 56.0059 109.366 55.5742 109.429 54.9394C109.488 54.3446 109.419 53.8233 109.162 52.9108C108.963 52.2068 108.783 51.8222 108.454 51.4016C108.135 50.9942 107.981 50.8536 107.639 50.6611ZM93.0071 52.0059C92.7953 51.9086 92.4844 51.8002 92.3163 51.765C91.827 51.6624 90.6214 51.5423 90.2794 51.5622C89.1201 51.6296 87.7037 52.2794 86.7048 53.2022C85.5363 54.2817 84.7763 55.5056 84.466 56.808C84.1013 58.3387 84.1835 59.7636 84.7349 61.4678C85.0006 62.2892 85.2003 62.6542 85.7333 63.2925C86.4293 64.126 87.1239 64.6215 87.7887 64.7588C88.1787 64.8393 89.0538 64.7641 89.5832 64.6047C90.4929 64.3308 91.5753 63.6644 92.2277 62.9764C92.627 62.5554 92.7052 62.44 92.942 61.9217C93.4572 60.7937 93.847 59.3972 94.0846 57.8275C94.1593 57.3347 94.2923 56.5957 94.3801 56.1853C94.6094 55.1147 94.6276 54.249 94.4341 53.6231C94.2201 52.9311 93.6735 52.3116 93.0071 52.0059ZM116.12 74.1564C115.581 73.958 114.613 74.0014 113.827 74.2592C113.301 74.4316 112.179 74.7796 110.517 75.2853C110.179 75.3883 108.685 76.0878 108.273 76.3359C108.052 76.4689 107.835 76.6755 107.505 77.0652L107.045 77.6089L106.701 78.754C106.239 80.2884 106.16 80.7347 106.223 81.4277C106.34 82.6942 107.223 83.992 108.403 84.6274C109.042 84.9719 110.155 85.2794 110.849 85.3032C113.537 85.3956 115.268 84.571 116.78 82.477C117.607 81.3303 117.952 80.5131 118.135 79.2581C118.449 77.1076 117.481 74.657 116.12 74.1564ZM102.783 66.2555C102.033 65.7159 101.662 65.5168 101.015 65.3081C99.5926 64.8494 98.205 64.9615 95.5743 65.7476C95.0045 65.9178 94.2076 66.1126 93.8035 66.1805C92.4331 66.4104 90.353 66.3459 88.3772 66.012C86.6831 65.7257 85.8677 65.7789 84.5989 66.2587C84.1596 66.4248 83.5746 66.6772 83.299 66.8195L82.798 67.0783L81.9947 68.0312L81.1914 68.9841L80.9904 69.5475C80.7138 70.3226 80.6202 70.8113 80.6136 71.5133C80.6021 72.7581 80.9012 73.871 81.559 75.0309C81.93 75.685 82.157 75.9921 82.7611 76.6576C83.6265 77.6108 84.1183 77.9598 86.3877 79.2313C86.9761 79.5609 87.6847 79.9928 87.9624 80.191C88.7114 80.7256 89.9442 81.8405 90.4655 82.4549C91.0843 83.1841 91.8871 84.3991 92.3107 85.2477C93.3409 87.3115 94.8859 88.9306 96.674 89.8202C98.1335 90.5463 99.6245 90.8063 100.815 90.5422C101.638 90.3595 102.642 89.9364 103.081 89.5865C103.849 88.976 104.691 87.649 104.918 86.6911C105.175 85.6067 105.105 84.1254 104.699 82.099C104.398 80.5902 104.207 78.9561 104.238 78.1428C104.251 77.8056 104.364 76.8079 104.489 75.9256C105.166 71.1517 105.195 70.5413 104.806 69.245C104.559 68.4201 104.446 68.1637 104.096 67.6337C103.68 67.0048 103.366 66.6753 102.783 66.2555Z" fill="#554B43"/>
</svg>
